<?xml version="1.0" standalone="no"?>
<!DOCTYPE svg PUBLIC "-//W3C//DTD SVG 1.1//EN" "http://www.w3.org/Graphics/SVG/1.1/DTD/svg11.dtd" >
<svg xmlns="http://www.w3.org/2000/svg" xmlns:xlink="http://www.w3.org/1999/xlink" version="1.1">
<metadata></metadata>
<defs>
<font id="elektra_text_proregular" horiz-adv-x="1302" >
<font-face units-per-em="2048" ascent="1638" descent="-410" />
<missing-glyph horiz-adv-x="576" />
<glyph unicode="&#xfb01;" horiz-adv-x="1198" d="M18 883v176h183v71q0 91 24 158.5t63.5 108.5t100.5 66t125.5 34.5t147.5 9.5q206 0 376 -68l-52 -161q-140 55 -307 55q-55 0 -94.5 -4.5t-77 -17.5t-60.5 -35.5t-36.5 -60.5t-13.5 -91v-65h652v-1059h-198v883h-454v-883h-196v883h-183z" />
<glyph unicode="&#xfb02;" horiz-adv-x="1208" d="M18 883v176h183v71q0 92 23.5 159.5t62 108.5t98 66t122 34t143.5 9q206 0 399 -68v-1154q0 -59 9.5 -99.5t27.5 -71t52 -68.5l-167 -92q-63 64 -91.5 137t-28.5 184v1031q-97 27 -203 27q-47 0 -81.5 -4.5t-68 -17.5t-54.5 -35.5t-34 -61t-13 -90.5v-65h330v-176h-330 v-883h-196v883h-183z" />
<glyph unicode="&#xfb03;" horiz-adv-x="1848" d="M18 883v176h183v71q0 91 23 159t61 109t94.5 66t114.5 34t130 9q59 0 122.5 -8.5t126 -24t115.5 -37.5q110 70 324 70q205 0 376 -68l-50 -161q-143 55 -309 55q-45 0 -79 -3t-67.5 -11t-56.5 -23t-41.5 -38t-27 -56.5t-8.5 -77.5v-65h649v-1059h-196v883h-453v-883h-198 v883h-454v-883h-196v883h-183zM397 1059h454v71q0 95 28 163q-106 40 -231 40q-50 0 -85.5 -4.5t-68.5 -18t-53.5 -36.5t-32 -60.5t-11.5 -89.5v-65z" />
<glyph unicode="&#xfb04;" horiz-adv-x="1860" d="M18 883v176h183v71q0 91 23 159t61 109t94.5 66t114.5 34t130 9q194 0 362 -70q105 70 313 70q206 0 399 -68v-1154q0 -77 20 -130.5t72 -108.5l-169 -92q-31 32 -52.5 63.5t-36.5 69.5t-22.5 84.5t-7.5 103.5v1031q-96 27 -205 27q-58 0 -100 -9t-77 -31t-53 -64.5 t-18 -104.5v-65h328v-176h-328v-883h-198v883h-454v-883h-196v883h-183zM397 1059h454v71q0 100 30 165q-121 38 -233 38q-71 0 -116.5 -11t-77 -38.5t-44.5 -73.5t-13 -118v-33z" />
<glyph horiz-adv-x="0" />
<glyph horiz-adv-x="682" />
<glyph unicode=" "  horiz-adv-x="576" />
<glyph unicode="&#x09;" horiz-adv-x="576" />
<glyph unicode="&#xa0;" horiz-adv-x="576" />
<glyph unicode="!" horiz-adv-x="692" d="M211 132q0 40 6.5 64.5t24 38t41.5 18t64 4.5q42 0 66 -4.5t41.5 -18t23.5 -37.5t6 -65q0 -45 -6 -71t-23.5 -41t-41.5 -19.5t-66 -4.5q-41 0 -64.5 4.5t-41 19t-24 41t-6.5 71.5zM215 1456h259l-56 -1017h-147z" />
<glyph unicode="&#x22;" horiz-adv-x="703" d="M94 1456h197l-40 -491h-134zM420 1456h190l-40 -491h-131z" />
<glyph unicode="#" horiz-adv-x="1430" d="M56 401l13 159h276l24 369h-281l10 161h282l23 366h187l-22 -366h315l24 366h187l-22 -366h296l-10 -161h-297l-25 -369h303l-10 -159h-301l-25 -401h-188l24 401h-315l-27 -401h-186l26 401h-281zM532 560h319l22 369h-317z" />
<glyph unicode="$" horiz-adv-x="1300" d="M150 1011q0 189 107 289t315 123v301h155v-293q102 0 208.5 -12.5t180.5 -35.5l-53 -183q-46 21 -143 34.5t-193 15.5v-431q220 -30 324.5 -124.5t104.5 -270.5q0 -97 -28 -169.5t-83.5 -121.5t-133.5 -77t-184 -40v-303h-155v297q-105 0 -214.5 13t-184.5 37l52 183 q39 -14 100 -25t126.5 -17.5t120.5 -6.5v454q-109 12 -186 37t-131 68t-79.5 106.5t-25.5 151.5zM353 1028q0 -91 47 -133.5t172 -57.5v404q-108 -14 -163.5 -65t-55.5 -148zM727 203q110 14 166 64t56 149q0 47 -10 80t-35 59.5t-68 43.5t-109 27v-423z" />
<glyph unicode="%" horiz-adv-x="1902" d="M88 1034q0 109 14 187.5t40.5 130.5t70.5 83t97.5 43.5t128.5 12.5t129 -12.5t98 -43.5t71 -83t41 -130.5t14 -187.5t-14 -189t-41 -134.5t-70.5 -87.5t-98.5 -47t-129 -14q-93 0 -156 22.5t-108.5 76.5t-66 145.5t-20.5 227.5zM265 1032q0 -128 18 -198.5t54 -98 t102 -27.5q67 0 103.5 28t53 97t16.5 199q0 80 -5.5 133.5t-17 89.5t-33 55t-49 26t-68.5 7q-40 0 -66.5 -7t-48.5 -26t-34 -54.5t-18.5 -89.5t-6.5 -134zM420 0l858 1456h197l-859 -1456h-196zM1112 443q0 90 9 159.5t29 120.5t48 85t68.5 54.5t87.5 29.5t109 9 q75 0 129 -13t97.5 -44t70 -83.5t40.5 -131t14 -186.5q0 -137 -20.5 -228t-65.5 -145.5t-108.5 -77t-156.5 -22.5t-156 23t-108 76.5t-66 145.5t-21 228zM1289 441q0 -128 18 -198t54.5 -98t101.5 -28q67 0 103 28t53 97.5t17 198.5q0 66 -3.5 114t-12.5 83.5t-21.5 57.5 t-33 35t-44.5 18t-58 5q-40 0 -66.5 -7.5t-48.5 -27t-34 -55t-18.5 -90t-6.5 -133.5z" />
<glyph unicode="&#x26;" horiz-adv-x="1622" d="M117 382q0 81 21.5 147t66.5 118t120.5 83t176.5 35q-55 5 -98 17.5t-73 29.5t-51 43t-33 52t-19 62.5t-9 68.5t-2 76q0 74 16 132.5t51 105t90.5 77t136.5 46.5t187 16q131 0 223 -21.5t149.5 -67t83.5 -112t26 -160.5q0 -58 -8 -104.5t-30 -91t-57 -75.5t-92.5 -52.5 t-133.5 -27.5q78 -8 164 -75.5t207 -227.5q105 167 105 355h208q0 -132 -50 -263.5t-141 -244.5q60 -79 217 -323h-240q-59 101 -119 186q-93 -79 -167.5 -123t-170.5 -68.5t-220 -24.5q-143 0 -239.5 20t-164.5 67.5t-99.5 127t-31.5 197.5zM345 411q0 -75 14.5 -123.5 t50 -81t94 -46.5t148.5 -14q153 0 247.5 40.5t203.5 148.5q-128 179 -229.5 265.5t-205.5 86.5q-84 0 -144 -14.5t-100.5 -47.5t-59.5 -86t-19 -128zM432 1096q0 -128 58 -183.5t193 -55.5q141 0 211.5 56t70.5 181q0 119 -61 168.5t-206 49.5q-99 0 -156 -21t-83.5 -67.5 t-26.5 -127.5z" />
<glyph unicode="'" horiz-adv-x="383" d="M94 1456h197l-40 -491h-134z" />
<glyph unicode="(" horiz-adv-x="582" d="M142 520q0 862 438 1070l95 -153q-53 -22 -98.5 -64t-87.5 -116t-71.5 -173.5t-47 -243.5t-17.5 -320t17.5 -320t47 -243.5t71.5 -173.5t87.5 -115.5t98.5 -64.5l-95 -153q-438 208 -438 1070z" />
<glyph unicode=")" horiz-adv-x="582" d="M-92 -397q54 23 99 64.5t87 115t71.5 173t47 244t17.5 320.5q0 147 -12 271.5t-34 218.5t-51.5 167.5t-66 124.5t-75.5 84t-83 51l94 153q439 -210 439 -1070t-439 -1070z" />
<glyph unicode="*" horiz-adv-x="953" d="M62 1040v162h275l-138 239l142 80l135 -239l136 239l144 -82l-140 -237h275v-162h-275l138 -238l-142 -79l-136 234l-135 -234l-142 81l136 236h-273z" />
<glyph unicode="+" horiz-adv-x="1256" d="M123 658v186h409v412h189v-412h411v-186h-411v-409h-189v409h-409z" />
<glyph unicode="," horiz-adv-x="563" d="M34 -333l165 542h248l-234 -542h-179z" />
<glyph unicode="-" horiz-adv-x="604" d="M64 489v186h477v-186h-477z" />
<glyph unicode="." horiz-adv-x="563" d="M146 132q0 40 6.5 64.5t23.5 38t40 18t63 4.5q43 0 67.5 -4.5t42 -18t23.5 -37.5t6 -65q0 -45 -6 -71t-23.5 -41t-42 -19.5t-67.5 -4.5q-40 0 -63 4.5t-40 19t-23.5 41t-6.5 71.5z" />
<glyph unicode="/" horiz-adv-x="933" d="M60 0l742 1456h219l-746 -1456h-215z" />
<glyph unicode="0" d="M119 748q0 110 8.5 201t25.5 163.5t41 129.5t58.5 98.5t74.5 70.5t91.5 47t108 25.5t125.5 7.5q111 0 192 -20.5t147.5 -71t107 -135.5t62 -212.5t21.5 -303.5q0 -179 -21 -311t-62 -221.5t-106.5 -144t-148 -78t-192.5 -23.5q-91 0 -163 16.5t-133 52.5t-104 95.5 t-73.5 145.5t-45 202.5t-14.5 265.5zM335 748q0 -103 5 -182t16 -141.5t29.5 -106.5t42 -75t57.5 -48.5t73.5 -25.5t91.5 -8q54 0 94 8t75 25.5t58.5 48.5t42 74.5t29 106.5t15.5 141.5t5 182.5q0 124 -6.5 211.5t-23 151t-39 101.5t-60.5 60.5t-81.5 30t-108.5 7.5 q-63 0 -105 -7.5t-80 -30t-60.5 -60.5t-39.5 -101.5t-23.5 -151.5t-6.5 -211z" />
<glyph unicode="1" d="M217 1252l600 261v-1513h-211v1228l-327 -148z" />
<glyph unicode="2" d="M115 0v169q151 118 253 199t192 157.5t143 124.5t97.5 99t64.5 83t34 73.5t17 73t3 80.5q0 70 -17.5 116.5t-57.5 74t-98 38.5t-146 11q-97 0 -206.5 -15.5t-166.5 -40.5l-47 186q218 62 434 62q138 0 234 -21t163.5 -69t99 -128.5t31.5 -198.5q0 -58 -5 -103t-20 -94 t-39 -91.5t-65.5 -93.5t-94.5 -101.5t-131 -115t-171 -134.5t-217 -159h737v-182h-1021z" />
<glyph unicode="3" d="M117 28l44 177q76 -22 183 -34t208 -12q65 0 116 4.5t91 13.5t68 24.5t47.5 35t31 47.5t16.5 60t5 74q0 148 -72.5 206.5t-250.5 58.5h-186v178h184q162 0 232.5 53t70.5 178q0 34 -5 60t-15.5 49t-28.5 39t-44.5 28.5t-63 20t-83 11.5t-105.5 4q-63 0 -133.5 -6 t-137.5 -17t-114 -25l-45 181q261 54 456 54q202 0 321.5 -39.5t170 -117.5t50.5 -206q0 -58 -7 -104t-27.5 -90.5t-54.5 -75.5t-90 -52.5t-132 -28.5q81 -3 141 -24t98 -54t61 -82t32 -101.5t9 -118.5q0 -120 -33.5 -201.5t-106.5 -131.5t-179.5 -72t-260.5 -22 q-106 0 -231.5 16.5t-229.5 41.5z" />
<glyph unicode="4" horiz-adv-x="1292" d="M56 399v61q119 219 300 506.5t334 489.5h304v-880h200v-177h-200v-399h-207v399h-731zM323 576h464v713q-114 -142 -247 -351t-217 -362z" />
<glyph unicode="5" d="M148 28l46 177q148 -46 368 -46q90 0 152 9t104.5 27t66 50t33 74t9.5 103q0 56 -5.5 96t-20.5 73t-39 54t-63 35t-90 20t-123 6q-207 0 -369 -34v784h863v-182h-660v-397q104 10 204 10q121 0 209.5 -16t151.5 -49t100.5 -87.5t55 -126.5t17.5 -169q0 -136 -31.5 -225.5 t-102.5 -143.5t-175 -77t-259 -23q-204 0 -442 58z" />
<glyph unicode="6" d="M123 737q0 149 17 263t53 197.5t87.5 140t126.5 90.5t163.5 48.5t204.5 14.5q61 0 131 -7.5t135.5 -20.5t122.5 -30l-55 -188q-41 16 -95 28t-116 18t-123 6t-107.5 -4.5t-91.5 -16.5t-78 -33t-61 -54t-46 -79t-29 -109t-13 -142q152 28 326 28q152 0 254 -24.5 t165.5 -80.5t90.5 -139t27 -206q0 -108 -19.5 -186t-59 -132.5t-104.5 -87t-150 -47t-202 -14.5q-104 0 -182 15.5t-141 51.5t-105.5 93.5t-71 143.5t-41.5 199.5t-13 263.5zM347 677q1 -108 10 -189t28.5 -138t45.5 -94.5t64.5 -58.5t81 -29.5t100.5 -8.5q96 0 156 13.5 t94.5 46.5t46.5 79.5t12 121.5q0 82 -12.5 133.5t-47 87t-93 50t-152.5 15.5q-220 0 -334 -29z" />
<glyph unicode="7" d="M165 1274v182h1073v-69q-156 -252 -344 -661t-296 -726h-243q128 349 296 710t304 564h-790z" />
<glyph unicode="8" d="M119 397q0 66 9 118.5t31.5 101.5t60.5 82t98.5 54t141.5 24q-76 7 -131.5 29t-88.5 52t-52.5 75.5t-26 90.5t-6.5 104q0 95 25 161t83 112t153.5 68t235 22t236 -22t154.5 -68t83.5 -112.5t25.5 -160.5q0 -59 -6.5 -104t-26 -90.5t-52.5 -75.5t-88.5 -52t-131.5 -29 q80 -3 140.5 -24t97.5 -54t60 -82t31.5 -101.5t8.5 -118.5q0 -119 -30.5 -200.5t-97.5 -132t-165 -72.5t-239 -22t-239 22t-165 72.5t-98 132t-31 200.5zM343 411q0 -99 27.5 -155t95 -83t186.5 -27t186 27t95 83t28 155q0 151 -70.5 213.5t-238.5 62.5q-113 0 -180 -27 t-98 -87.5t-31 -161.5zM372 1096q0 -128 66 -183.5t214 -55.5q149 0 214 55.5t65 183.5q0 121 -61.5 169.5t-217.5 48.5t-218 -48.5t-62 -169.5z" />
<glyph unicode="9" d="M115 1005q0 135 29.5 226.5t95 150t165 84t245.5 25.5q108 0 185.5 -9t140.5 -32.5t102.5 -60t66 -94t37 -132t10.5 -177.5q0 -89 -16 -176t-43 -162t-68.5 -150.5t-86 -138.5t-101.5 -129t-109.5 -119t-115.5 -111h-276q180 159 307.5 303t197.5 289q-128 -18 -229 -18 q-154 0 -254.5 22t-164.5 73.5t-91 132t-27 203.5zM339 1019q0 -56 5.5 -94.5t20 -69t37 -49t61 -30t86.5 -16t117 -4.5q152 0 281 21q22 77 22 182q0 59 -4 104.5t-13.5 81.5t-22 61.5t-33.5 43.5t-43 28.5t-56 17t-67 8.5t-80 2q-77 0 -131.5 -12t-89.5 -33.5t-55 -58 t-27.5 -79.5t-7.5 -104z" />
<glyph unicode=":" horiz-adv-x="563" d="M146 132q0 40 6.5 64.5t23.5 38t40 18t63 4.5q43 0 67.5 -4.5t42 -18t23.5 -37.5t6 -65q0 -45 -6 -71t-23.5 -41t-42 -19.5t-67.5 -4.5q-40 0 -63 4.5t-40 19t-23.5 41t-6.5 71.5zM146 940q0 41 6.5 65.5t23.5 38t40 17.5t63 4q43 0 67.5 -4t42 -17.5t23.5 -37.5t6 -66 q0 -44 -6 -70.5t-23.5 -41.5t-42 -19.5t-67.5 -4.5q-40 0 -63 4.5t-40 19.5t-23.5 41.5t-6.5 70.5z" />
<glyph unicode=";" horiz-adv-x="563" d="M34 -333l165 542h248l-234 -542h-179zM146 940q0 41 6.5 65.5t23.5 38t40 17.5t63 4q43 0 67.5 -4t42 -17.5t23.5 -37.5t6 -66q0 -44 -6 -70.5t-23.5 -41.5t-42 -19.5t-67.5 -4.5q-40 0 -63 4.5t-40 19.5t-23.5 41.5t-6.5 70.5z" />
<glyph unicode="&#x3c;" horiz-adv-x="1256" d="M205 700v100l762 599l109 -135l-614 -512l614 -516l-107 -138z" />
<glyph unicode="=" horiz-adv-x="1256" d="M123 405v187h1009v-187h-1009zM123 901v185h1009v-185h-1009z" />
<glyph unicode="&#x3e;" horiz-adv-x="1256" d="M205 236l614 512l-614 514l106 139l767 -601v-100l-763 -600z" />
<glyph unicode="?" horiz-adv-x="999" d="M75 1439q63 22 169.5 37t183.5 15q136 0 232.5 -26.5t155.5 -79.5t86 -127.5t27 -175.5q0 -92 -21 -174t-66.5 -161t-107.5 -153.5t-154 -163.5h-219q89 88 151 166t103 157.5t60 159.5t19 169q0 55 -13 93t-43.5 66.5t-84.5 42t-134.5 13.5t-160.5 -12t-133 -33z M335 132q0 40 6 64.5t23 38t40.5 18t63.5 4.5q43 0 67.5 -4.5t42 -18t24 -37.5t6.5 -65q0 -45 -6.5 -71t-24 -41t-42 -19.5t-67.5 -4.5q-40 0 -63.5 4.5t-40.5 19t-23 41t-6 71.5z" />
<glyph unicode="@" horiz-adv-x="1952" d="M123 554q0 100 10 185t29 154.5t48 126t65.5 100.5t84.5 77t102 55.5t120 36.5t137 20.5t154 6.5q59 0 105 -2.5t92 -9.5t81 -18t68.5 -28.5t57.5 -41.5t46 -56t36 -73t24.5 -92t15.5 -113t5 -136q0 -71 -3.5 -129.5t-11.5 -107.5t-19 -87.5t-28 -70t-36.5 -54 t-47.5 -39.5t-57.5 -28t-68.5 -17.5t-80 -9t-93 -2.5q-122 0 -200 15.5t-131 56t-75.5 108t-22.5 173.5q0 64 8 113.5t22.5 86.5t39.5 62.5t54.5 42t73 26t89.5 13t108 3.5q73 0 156 -7t133 -17q-2 81 -18.5 131.5t-56.5 81.5t-99 42.5t-153 11.5q-67 0 -120.5 -2.5 t-103.5 -10t-88.5 -19.5t-73 -31t-59.5 -43.5t-46.5 -59t-35 -76t-23 -94.5t-14 -115.5t-4.5 -138.5q0 -83 6 -149t18.5 -122.5t33.5 -100t48.5 -78t67 -59t86.5 -42t109 -28t131 -15t156 -4.5q131 0 226.5 12.5t172 43.5t125.5 79t81.5 123.5t46 173t13.5 230.5 q0 291 -46 420h194q44 -142 44 -426q0 -161 -22 -284.5t-69 -215.5t-115 -155t-166 -102t-215.5 -55.5t-269.5 -16.5q-130 0 -233.5 11t-193.5 35.5t-156.5 66t-118.5 100.5t-84.5 140t-49 184.5t-16.5 233.5zM733 562q0 -62 11 -99.5t40 -61t73 -32t116 -8.5q57 0 95.5 7.5 t67.5 24.5t45.5 48t24.5 75.5t8 109.5v105q-103 17 -237 17q-43 0 -72.5 -2t-57.5 -6.5t-45 -13t-31.5 -22t-22 -33.5t-11.5 -46.5t-4 -62.5z" />
<glyph unicode="A" horiz-adv-x="1409" d="M2 0q252 757 539 1456h344q123 -375 269 -772t269 -684h-239q-120 304 -156 405h-675q-62 -186 -132 -405h-219zM414 586h551q-101 278 -232 694h-58q-128 -318 -261 -694z" />
<glyph unicode="B" horiz-adv-x="1461" d="M199 0v1456h741q86 0 148.5 -17.5t101 -47t62 -75t31.5 -94.5t8 -113q0 -60 -5.5 -102.5t-23.5 -85.5t-49.5 -70t-85.5 -47t-130 -27q58 -2 104.5 -13.5t80.5 -29t59.5 -43.5t41.5 -55.5t26 -67.5t13.5 -77t3.5 -86q0 -204 -95 -304.5t-274 -100.5h-758zM409 180h516 q92 0 133 63t41 181q0 123 -45.5 192t-136.5 69h-508v-505zM409 859h500q159 0 159 213q0 104 -35 154t-124 50h-500v-417z" />
<glyph unicode="C" horiz-adv-x="1246" d="M121 742q0 148 18 262t56 197t91.5 139t131.5 89.5t168.5 47.5t209.5 14q65 0 139.5 -7t146 -19t126.5 -28l-52 -190q-61 23 -156 36.5t-179 13.5q-69 0 -119 -3.5t-98.5 -14t-82 -29t-63.5 -48t-49 -70.5t-32.5 -98t-19.5 -129.5t-6 -164.5q0 -83 5 -149t14.5 -120.5 t26 -96.5t37 -74t50.5 -55t63 -38t77 -24t90.5 -12.5t106.5 -3.5q83 0 178.5 13.5t156.5 34.5l52 -189q-42 -13 -94 -23.5t-105.5 -17.5t-108.5 -11t-104 -4q-142 0 -247 23.5t-188 77.5t-134.5 143t-78.5 219.5t-27 308.5z" />
<glyph unicode="D" horiz-adv-x="1503" d="M199 0v1456h501q118 0 209.5 -14.5t170 -47.5t133 -88t93 -135t57 -188.5t18.5 -249.5q0 -168 -27 -292.5t-79.5 -209t-136.5 -136t-190 -73.5t-248 -22h-501zM409 182h278q77 0 135.5 7t109 23.5t86 45.5t63 70t43.5 100t24 133t8 170q0 89 -6 158t-19 124.5t-31.5 95.5 t-48 69.5t-63 47.5t-81.5 29t-99.5 15t-120.5 4h-278v-1092z" />
<glyph unicode="E" horiz-adv-x="1284" d="M199 0v1456h1025v-182h-815v-413h579v-180h-579v-499h815v-182h-1025z" />
<glyph unicode="F" horiz-adv-x="1204" d="M199 0v1456h1007v-182h-797v-487h579v-179h-579v-608h-210z" />
<glyph unicode="G" horiz-adv-x="1439" d="M121 742q0 127 14.5 229t42 180t71.5 136t98.5 97t128 63t155.5 34t184 10q99 0 219 -15t204 -39l-52 -187q-59 22 -165.5 35.5t-193.5 13.5q-55 0 -98 -2t-85 -8.5t-73.5 -17t-61.5 -27.5t-51 -40.5t-39.5 -55t-30.5 -71.5t-21 -91t-12.5 -111.5t-3.5 -134.5 q0 -124 10.5 -213t35.5 -154t60 -105t90.5 -63.5t119 -32.5t154.5 -9q123 0 240 27v450h-349v177h564v-791q-82 -26 -221.5 -41t-258.5 -15q-142 0 -247 23.5t-188 77.5t-134.5 143t-78.5 219.5t-27 308.5z" />
<glyph unicode="H" horiz-adv-x="1513" d="M199 0v1456h210v-583h698v583h211v-1456h-211v679h-698v-679h-210z" />
<glyph unicode="I" horiz-adv-x="604" d="M199 0v1456h210v-1456h-210z" />
<glyph unicode="J" horiz-adv-x="941" d="M20 32l53 191q47 -22 114.5 -36t125.5 -14q35 0 64.5 6t58.5 22.5t49 43t32.5 71.5t12.5 104v1036h216v-1055q0 -103 -24 -180.5t-62 -124t-94 -75.5t-112.5 -40t-125.5 -11q-76 0 -158.5 17.5t-149.5 44.5z" />
<glyph unicode="K" horiz-adv-x="1334" d="M199 0v1456h210v-1456h-210zM411 769q87 56 262 241.5t367 445.5h268q-204 -258 -370 -436.5t-238 -232.5q32 -19 92 -77t143.5 -151.5t195.5 -241t225 -317.5h-270q-92 139 -183.5 261t-166 209t-139.5 152.5t-111 101t-75 45.5z" />
<glyph unicode="L" horiz-adv-x="1144" d="M199 0v1456h210v-1270h721v-186h-931z" />
<glyph unicode="M" horiz-adv-x="1862" d="M199 0v1456h300q257 -537 441 -1013q195 504 443 1013h284v-1456h-208v1186q-215 -465 -452 -1040h-163q-253 628 -441 1040v-1186h-204z" />
<glyph unicode="N" horiz-adv-x="1570" d="M199 0v1456h281q326 -497 680 -1141v1141h213v-1456h-259q-317 586 -707 1202v-1202h-208z" />
<glyph unicode="O" horiz-adv-x="1595" d="M121 737q0 149 18 262.5t56 197t92 140.5t132 91t169 48.5t209.5 14.5t209.5 -14.5t169 -48.5t132 -91t92.5 -140.5t56.5 -197t18 -262.5q0 -128 -13.5 -231t-40 -183t-68.5 -139.5t-95.5 -100t-125 -66t-152.5 -36.5t-182 -11q-118 0 -209.5 15.5t-169.5 50.5t-132 93 t-92 143t-56 200.5t-18 264.5zM351 733q0 -120 8.5 -206t31 -151.5t54.5 -105.5t84 -65t115.5 -34.5t153.5 -9.5t154 9.5t116.5 34.5t85.5 65t55 105.5t31.5 151.5t9.5 206q0 83 -4.5 148.5t-13 120.5t-23.5 96.5t-33.5 74t-46.5 54.5t-59.5 37.5t-75 23.5t-90 12t-106.5 4 q-54 0 -96.5 -3t-82.5 -10t-70 -18t-57.5 -29.5t-46.5 -42t-36 -56.5t-27 -73t-17.5 -92t-10.5 -112t-3 -135z" />
<glyph unicode="P" horiz-adv-x="1380" d="M197 0v1456h704q409 0 409 -487q0 -73 -13.5 -139t-44.5 -125.5t-76.5 -102.5t-114 -68.5t-152.5 -25.5h-500v-508h-212zM409 690h452q71 0 119.5 34t72 96.5t23.5 150.5q0 148 -53 226.5t-154 78.5h-460v-586z" />
<glyph unicode="Q" horiz-adv-x="1637" d="M142 737q0 149 18 262.5t56 197t92 140.5t132 91t169.5 48.5t209.5 14.5t209.5 -14.5t169 -48.5t131.5 -91t92.5 -140.5t56 -197t17.5 -262.5q0 -181 -26 -311t-82 -216.5t-136 -135t-194 -68.5q151 -29 438 -407h-259q-80 118 -162 202.5t-147 124t-116 44.5 q-116 1 -206.5 16.5t-167 51t-130.5 93.5t-91.5 143t-55.5 200t-18 263zM369 733q0 -120 9 -206.5t31.5 -151.5t55 -105t85 -65t116 -34.5t153.5 -9.5q91 0 154.5 9.5t116 34.5t85 65t55 105.5t31.5 151.5t9 206q0 94 -5 165.5t-17 130t-29 100t-44.5 73t-60 50.5t-79 31 t-97 16.5t-119.5 4.5q-68 0 -118.5 -4.5t-97 -16.5t-78.5 -31t-60 -50.5t-45 -73t-29 -100t-17 -130.5t-5 -165z" />
<glyph unicode="R" horiz-adv-x="1443" d="M199 0v1456h704q77 0 139.5 -15.5t106 -44t75.5 -66.5t50.5 -86.5t27 -100t8.5 -111.5q0 -64 -12.5 -119t-41.5 -105.5t-74 -86t-114.5 -57t-158.5 -22.5q75 -27 196.5 -184t302.5 -458h-266q-338 594 -494 594h-239v-594h-210zM409 773h452q103 0 158 63.5t55 180.5 q0 126 -53 192.5t-152 66.5h-460v-503z" />
<glyph unicode="S" horiz-adv-x="1300" d="M117 1040q0 122 40 209t119 140t188.5 77.5t256.5 24.5q106 0 221 -16.5t200 -43.5l-50 -186q-56 23 -163 37.5t-208 14.5q-193 0 -284.5 -53t-91.5 -185q0 -67 28 -108.5t104.5 -69.5t212.5 -39q258 -24 376 -125t118 -303q0 -120 -40 -206t-119.5 -138t-189.5 -76 t-259 -24q-109 0 -228.5 17.5t-205.5 46.5l52 183q44 -14 108 -26t135.5 -19t134.5 -7q54 0 98.5 3.5t85 11.5t71.5 20.5t56.5 31t41.5 43t25 56.5t9 72t-9 72t-33 61.5t-62.5 51t-100.5 37t-146 23.5q-130 10 -219.5 35t-151.5 71t-91 116t-29 170z" />
<glyph unicode="T" horiz-adv-x="1228" d="M8 1274v182h1212v-182h-497v-1274h-215v1274h-500z" />
<glyph unicode="U" horiz-adv-x="1545" d="M173 472v984h216v-963q0 -57 7 -102t21.5 -79.5t38 -59.5t53 -42.5t70.5 -27.5t87.5 -14.5t106.5 -4.5q83 0 142 8.5t107.5 30t77.5 59t44.5 94.5t15.5 138v963h213v-984q0 -87 -13.5 -157t-38.5 -122t-64.5 -90.5t-87 -64t-111 -40.5t-132 -21.5t-153.5 -6.5t-152.5 6.5 t-131 21.5t-111.5 40.5t-87.5 64t-64.5 90.5t-39 122t-14 157z" />
<glyph unicode="V" horiz-adv-x="1344" d="M-14 1456h237q119 -285 241.5 -623.5t210.5 -635.5q212 505 445 1259h221q-241 -754 -541 -1456h-276q-115 371 -261.5 769t-276.5 687z" />
<glyph unicode="W" horiz-adv-x="1963" d="M4 1456h234q192 -573 340 -1207q233 778 319 1207h204q6 -23 18 -70q65 -242 103.5 -387.5t93 -373t81.5 -376.5q204 621 339 1207h217q-191 -768 -426 -1456h-271q-80 417 -257 1120q-76 -383 -299 -1120h-270q-247 954 -426 1456z" />
<glyph unicode="X" horiz-adv-x="1380" d="M10 0q233 293 562 737q-299 401 -552 719h271q185 -239 413 -537q190 255 386 537h257q-217 -311 -514 -712q289 -391 537 -744h-263q-257 361 -405 564q-200 -266 -435 -564h-257z" />
<glyph unicode="Y" horiz-adv-x="1298" d="M-46 1456h276q225 -282 436 -597q242 317 422 597h253q-293 -432 -578 -792v-664h-213v664q-312 449 -596 792z" />
<glyph unicode="Z" horiz-adv-x="1284" d="M40 0v62q212 275 450.5 605t426.5 607h-827v182h1151v-59q-128 -196 -279.5 -413t-309.5 -429t-289 -373h851v-182h-1174z" />
<glyph unicode="[" horiz-adv-x="632" d="M184 -543v2120h491v-173h-284v-1776h284v-171h-491z" />
<glyph unicode="\" horiz-adv-x="933" d="M-82 1456h222l741 -1456h-217z" />
<glyph unicode="]" horiz-adv-x="632" d="M-42 -372h285v1776h-285v173h491v-2120h-491v171z" />
<glyph unicode="^" horiz-adv-x="1046" d="M26 618l396 838h196l403 -838h-210l-293 632l-291 -632h-201z" />
<glyph unicode="_" horiz-adv-x="905" d="M64 -121h778v-186h-778v186z" />
<glyph unicode="`" horiz-adv-x="1018" d="M203 1456h225l251 -270h-186z" />
<glyph unicode="a" horiz-adv-x="1150" d="M111 325q0 64 11 114.5t29.5 87t48 63t62.5 43t77.5 26t89 13t99.5 3.5q128 0 283 -31q0 48 -4 84t-12.5 66t-24.5 49.5t-37 34t-52.5 22.5t-69 11.5t-89.5 3.5q-186 0 -313 -50l-42 171q192 52 387 52q121 0 202 -19t138 -66t83 -126.5t26 -199.5v-623 q-62 -25 -141.5 -44.5t-160 -29.5t-151.5 -10q-124 0 -204 17t-134.5 58t-77.5 108.5t-23 171.5zM323 337q0 -46 4.5 -77.5t16 -55t27.5 -37t45 -22t62.5 -11t83.5 -2.5q132 0 249 41v324q-97 23 -247 23q-49 0 -80.5 -2t-61 -8.5t-46.5 -19t-30 -33t-18 -50t-5 -70.5z" />
<glyph unicode="b" horiz-adv-x="1210" d="M153 52v1457h196v-498q109 77 281 77q97 0 168 -16.5t128 -55.5t92.5 -103.5t53.5 -159t18 -223.5q0 -130 -19 -225t-56 -159.5t-98 -103t-137.5 -55.5t-181.5 -17q-108 0 -234.5 22.5t-210.5 59.5zM349 182q103 -40 249 -40q57 0 96 5.5t73 21.5t54.5 43t35.5 71 t20.5 104t5.5 143q0 116 -13.5 188t-48 116t-86.5 60.5t-135 16.5q-107 0 -179 -33t-72 -91v-605z" />
<glyph unicode="c" horiz-adv-x="977" d="M119 534q0 81 9 148.5t27 121t43 96t59.5 74t74 53.5t88.5 35.5t102 19.5t116 6q73 0 163.5 -14t149.5 -36l-52 -175q-109 48 -253 48q-58 0 -99 -5.5t-79 -20.5t-62 -41.5t-42.5 -68.5t-27 -102.5t-8.5 -142.5q0 -66 6.5 -118.5t19 -93t32.5 -69.5t44.5 -48.5t58.5 -31 t71.5 -16.5t85.5 -5q125 0 253 53l52 -173q-59 -26 -148.5 -42t-164.5 -16q-102 0 -180 17t-143 57t-107.5 104t-65.5 161t-23 225z" />
<glyph unicode="d" horiz-adv-x="1210" d="M119 528q0 128 20 223.5t57 160t95.5 104t130.5 56t168 16.5q161 0 273 -71v492h196v-1457q-34 -15 -77 -28t-89.5 -22.5t-94.5 -16.5t-95 -11t-89 -4q-105 0 -182 16.5t-138 55t-98.5 103t-57 159t-19.5 224.5zM328 532q0 -70 5 -123.5t14.5 -95t26 -70t37.5 -48 t52.5 -30t67 -15t83.5 -4.5q146 0 249 38v605q0 58 -72.5 92t-178.5 34q-83 0 -135 -17t-86.5 -61t-48.5 -116.5t-14 -188.5z" />
<glyph unicode="e" horiz-adv-x="1146" d="M119 534q0 125 21 219t60 158t99.5 103.5t134.5 56.5t170 17q82 0 144 -11t114.5 -37t87.5 -70.5t59.5 -111t34.5 -158.5q8 -76 7 -170v-41h-721q1 -86 14 -146t36 -99t62.5 -61t87.5 -30.5t116 -8.5q38 0 91.5 6t110.5 18t99 26l37 -164q-81 -26 -184 -43t-178 -17 q-97 0 -172.5 17t-139 57t-104.5 104t-64 161t-23 225zM333 650h522q-4 85 -18 137.5t-44 83t-71.5 41.5t-109.5 11q-59 0 -101.5 -8.5t-75 -27t-53 -50.5t-33 -77.5t-16.5 -109.5z" />
<glyph unicode="f" horiz-adv-x="763" d="M18 883v176h183v83q0 68 11 122t29.5 91.5t47 65t59.5 44t72.5 26t79.5 13t86 3.5q126 0 243 -40l-46 -161q-38 12 -94.5 19.5t-104.5 7.5q-45 0 -76.5 -8t-58 -29t-39.5 -60.5t-13 -99.5v-77h361v-176h-361v-883h-196v883h-183z" />
<glyph unicode="g" horiz-adv-x="1210" d="M119 530q0 130 19.5 224.5t57 159t98.5 103t138 55t182 16.5q107 0 233.5 -22t211.5 -57v-929q0 -119 -25.5 -207.5t-70 -144.5t-114.5 -90.5t-150 -48t-185 -13.5q-79 0 -186.5 18t-170.5 43l46 169q63 -25 152.5 -41t156.5 -16q88 0 149.5 14t109 47t70 93t22.5 149 q-112 -80 -281 -80q-80 0 -142.5 11.5t-115.5 37.5t-90 68.5t-63.5 104t-39 145.5t-12.5 191zM328 530q0 -93 9.5 -157t28.5 -109t53.5 -70t80 -35.5t112.5 -10.5q106 0 178.5 34t72.5 91v606q-106 38 -249 38q-57 0 -96 -5.5t-73 -21.5t-54.5 -42.5t-35.5 -70t-21 -103.5 t-6 -144z" />
<glyph unicode="h" horiz-adv-x="1186" d="M150 0v1509h199v-500q49 32 131 55.5t168 23.5q84 0 144 -13t109 -45t78.5 -87t45 -138.5t15.5 -200.5v-604h-198v578q0 48 -2.5 84.5t-9.5 72t-18 61t-29.5 47.5t-44 35.5t-60.5 21t-80 7.5q-67 0 -122.5 -13.5t-91 -41.5t-35.5 -67v-785h-199z" />
<glyph unicode="i" horiz-adv-x="498" d="M134 1377q0 66 24 85t95 19q36 0 56 -3.5t35 -14.5t20 -31t5 -55q0 -73 -24 -95t-92 -22q-70 0 -94.5 22t-24.5 95zM153 0v1059h196v-1059h-196z" />
<glyph unicode="j" horiz-adv-x="498" d="M-42 -255q51 0 85 8.5t60 31t38 64.5t12 107v1103h196v-1099q0 -92 -17.5 -160t-49 -110.5t-81.5 -68.5t-107.5 -35.5t-135.5 -9.5v169zM134 1377q0 66 24 85t95 19q36 0 56 -3.5t35 -14.5t20 -31t5 -55q0 -73 -24 -95t-92 -22q-70 0 -94.5 22t-24.5 95z" />
<glyph unicode="k" horiz-adv-x="1075" d="M153 0v1509h196v-949q50 38 169 168t284 331h240q-156 -191 -274 -317.5t-168 -163.5q47 -27 172.5 -177t305.5 -401h-241q-392 522 -488 560v-560h-196z" />
<glyph unicode="l" horiz-adv-x="511" d="M153 275v1234h196v-1224q0 -77 20 -129t72 -110l-168 -92q-63 66 -91.5 137.5t-28.5 183.5z" />
<glyph unicode="m" horiz-adv-x="1816" d="M153 0v1001q45 19 100.5 35.5t114 27.5t119 17.5t115.5 6.5q188 0 277 -71q91 32 193 51.5t190 19.5q93 0 159 -14.5t115.5 -48t78 -92t42.5 -140.5t14 -199v-594h-196v568q0 61 -4 106.5t-12 82t-22 61.5t-32.5 42.5t-46.5 27.5t-60 14.5t-76 4.5q-138 0 -249 -36 q38 -112 38 -277v-594h-198v568q0 53 -2.5 94t-9 76t-15.5 59.5t-24 44t-33 31.5t-43.5 20t-54.5 11t-67 3q-115 0 -215 -30v-877h-196z" />
<glyph unicode="n" horiz-adv-x="1186" d="M153 0v1001q90 38 220.5 62.5t242.5 24.5q94 0 161 -14.5t119 -48.5t83 -91.5t46 -140.5t15 -199v-594h-196v568q0 71 -5 121.5t-18 89.5t-32 62.5t-50 39t-69.5 21t-93.5 5.5q-121 0 -227 -30v-877h-196z" />
<glyph unicode="o" horiz-adv-x="1226" d="M119 534q0 130 20 224.5t57.5 158t99 101.5t137.5 54t179 16q86 0 153 -11t123.5 -36.5t95.5 -67t67 -103t41 -145t13 -191.5q0 -130 -19.5 -225.5t-57 -160.5t-98 -104.5t-137.5 -56.5t-181 -17q-103 0 -180 17t-137.5 56.5t-98.5 104.5t-57.5 160.5t-19.5 225.5z M328 530q0 -96 9.5 -162.5t28.5 -112.5t53.5 -71t80 -35.5t112.5 -10.5t112.5 10.5t80.5 36t54 71t28.5 112t9.5 162.5q0 85 -6 145t-20.5 104.5t-35 71t-54.5 43t-73 22t-96 5.5t-96 -5.5t-73 -22t-54 -43t-34.5 -71t-20.5 -104.5t-6 -145z" />
<glyph unicode="p" horiz-adv-x="1210" d="M153 -401v1410q85 35 211.5 57t233.5 22q105 0 181.5 -16t137.5 -54.5t98 -102.5t56 -158.5t19 -224.5q0 -128 -19.5 -224t-56.5 -160.5t-96 -104t-131 -56.5t-167 -17q-163 0 -271 76v-447h-196zM349 271q0 -59 71.5 -93t177.5 -34q83 0 135.5 17t87.5 61t48.5 117 t13.5 189q0 83 -5.5 142t-20.5 102.5t-35.5 70t-54.5 42.5t-73 22t-96 6q-150 0 -249 -38v-604z" />
<glyph unicode="q" horiz-adv-x="1210" d="M119 530.5q0 129.5 19.5 224t57 159t98.5 103t138 55t182 16.5q107 0 233.5 -22t211.5 -57v-1410h-196v451q-118 -80 -285 -80q-96 0 -167.5 17t-128 56t-91.5 103.5t-53.5 159.5t-18.5 224.5zM328 530q0 -93 9.5 -157t28.5 -109t53.5 -70t80 -35.5t112.5 -10.5 q106 0 178.5 34t72.5 91v606q-106 38 -249 38q-57 0 -96 -5.5t-73 -21.5t-54.5 -42.5t-35.5 -70t-21 -103.5t-6 -144z" />
<glyph unicode="r" horiz-adv-x="753" d="M153 0v1059h196v-77q33 45 106 75.5t178 30.5q55 0 109 -6v-193q-66 12 -124 12q-73 0 -132.5 -14t-98 -44t-38.5 -72v-771h-196z" />
<glyph unicode="s" horiz-adv-x="1037" d="M108 748q0 96 29.5 163.5t88.5 105.5t136 54.5t184 16.5q171 0 353 -54l-51 -167q-66 24 -148.5 39t-158.5 15q-51 0 -83.5 -3t-63 -12t-47 -26.5t-26.5 -45.5t-10 -69q0 -66 53 -97.5t188 -43.5q202 -18 290.5 -88.5t88.5 -220.5q0 -98 -27.5 -165.5t-84.5 -106.5 t-133.5 -56t-183.5 -17q-86 0 -197 16t-184 42l48 166q57 -24 151.5 -40t176.5 -16q63 0 102.5 6t71.5 23t46 49.5t14 84.5q0 37 -11 61.5t-38.5 44t-75 31t-119.5 17.5q-97 8 -163.5 25.5t-117 50.5t-74.5 86.5t-24 130.5z" />
<glyph unicode="t" horiz-adv-x="843" d="M23 883v176h182v201l198 81v-282h372v-176h-372v-516q0 -119 39 -169t140 -50q104 0 191 29l38 -163q-51 -19 -123.5 -31.5t-137.5 -12.5q-75 0 -128 10t-96 35.5t-68.5 69t-39 110t-13.5 160.5v528h-182z" />
<glyph unicode="u" horiz-adv-x="1186" d="M148 466v593h197v-568q0 -72 5 -122t17.5 -89t31.5 -62.5t49.5 -38.5t69 -20.5t92.5 -5.5q134 0 229 31v875h197v-1001q-60 -25 -141.5 -45.5t-165.5 -31.5t-157 -11q-117 0 -194.5 24t-130.5 81t-76 152t-23 239z" />
<glyph unicode="v" horiz-adv-x="1064" d="M26 1059h210q156 -377 294 -865q206 521 299 865h205q-130 -438 -386 -1059h-257q-193 668 -365 1059z" />
<glyph unicode="w" horiz-adv-x="1714" d="M28 1059h215q143 -374 265 -860q61 176 139 443.5t111 416.5h213q54 -160 120 -405t115 -455q190 525 269 860h209q-152 -552 -362 -1059h-257q-40 195 -100 434.5t-102 372.5q-44 -185 -110 -407.5t-129 -399.5h-257q-166 613 -339 1059z" />
<glyph unicode="x" horiz-adv-x="1088" d="M38 0q158 180 420 528q-213 293 -418 531h249q130 -161 279 -369q92 122 253 369h226q-185 -277 -368 -522q190 -260 370 -537h-230q-91 147 -255 380q-139 -185 -299 -380h-227z" />
<glyph unicode="y" horiz-adv-x="1064" d="M26 1059h210q153 -362 294 -871q200 495 299 871h205q-137 -466 -396 -1079q-87 -208 -178 -381h-224q78 145 171 351q-83 299 -183.5 595.5t-197.5 513.5z" />
<glyph unicode="z" horiz-adv-x="1035" d="M56 0v54q166 205 340 444.5t266 384.5h-570v176h877v-52q-130 -202 -309.5 -453t-287.5 -379h589v-175h-905z" />
<glyph unicode="{" horiz-adv-x="624" d="M48 439v161q39 0 71 11t62 40t50 75.5t32 120.5t12 172q0 103 18 190t48 148.5t72.5 109.5t89 77.5t101.5 47.5l94 -155q-44 -13 -77 -32.5t-62 -54t-47.5 -83.5t-29 -122t-10.5 -168q0 -97 -12.5 -175t-31.5 -126.5t-45 -83t-48.5 -50t-45.5 -22.5q19 -5 37.5 -17.5 t40.5 -35t40 -58.5t33 -83.5t23.5 -116.5t8.5 -151q0 -79 7 -142t21 -110t32.5 -81t45 -58t55 -39.5t65.5 -26.5l-94 -153q-45 15 -85 38t-77.5 56.5t-67 79.5t-52 103.5t-35 132t-12.5 160.5q0 98 -12 172.5t-32 121t-50 75.5t-62 40.5t-71 11.5z" />
<glyph unicode="|" horiz-adv-x="711" d="M251 -534v2111h211v-2111h-211z" />
<glyph unicode="}" horiz-adv-x="624" d="M-73 -397q43 14 75 33t61 53.5t47.5 83t29 121t10.5 166.5q0 98 13 176.5t32 127t45 83.5t48.5 50.5t46.5 22.5q-24 7 -46.5 22.5t-48.5 50.5t-45 83.5t-32 127.5t-13 176q0 96 -10.5 168t-28.5 120.5t-47 83t-61 54t-76 33.5l93 151q55 -18 101.5 -47t88.5 -77 t72 -109.5t47.5 -148t17.5 -189.5q0 -98 12 -172t32 -120.5t50 -75.5t62 -40t71 -11v-161q-39 0 -71 -11.5t-62 -40.5t-50 -75.5t-32 -121t-12 -172.5q0 -86 -12 -160t-34.5 -131t-52 -103t-67 -79.5t-77 -56.5t-84.5 -38z" />
<glyph unicode="~" horiz-adv-x="1256" d="M113 744q58 98 118.5 146t146.5 48q54 0 127.5 -27.5t133 -61t124.5 -61.5t104 -28q49 0 84.5 33.5t65.5 115.5l132 -102q-39 -104 -115.5 -165.5t-178.5 -61.5q-49 0 -120.5 28.5t-132 63t-127 63t-106.5 28.5q-85 0 -137 -130z" />
<glyph unicode="&#xa1;" horiz-adv-x="692" d="M209 953q0 44 7 70.5t24.5 41t42 19t66.5 4.5q40 0 63.5 -4.5t41 -19t24 -41t6.5 -70.5q0 -41 -6.5 -65.5t-24 -38t-41 -18t-63.5 -4.5q-42 0 -66.5 4.5t-42 18t-24.5 38t-7 65.5zM219 -372l56 1018h147l56 -1018h-259z" />
<glyph unicode="&#xa2;" horiz-adv-x="964" d="M119 809q0 141 27 242.5t81 164.5t126 96t171 44v219h168v-215q59 -3 129.5 -17t118.5 -31l-53 -166q-76 35 -195 42v-770q109 7 195 46l53 -163q-96 -42 -248 -54v-253h-168v255q-99 12 -172 47t-126 100t-80 168t-27 245zM317 804q0 -122 23.5 -199t67.5 -115.5 t116 -52.5v735q-73 -13 -116.5 -49.5t-67 -114t-23.5 -204.5z" />
<glyph unicode="&#xa3;" horiz-adv-x="1260" d="M86 642v171h133v198q0 240 137 359t421 119q106 0 221.5 -16.5t201.5 -43.5l-51 -186q-56 24 -163 39t-209 15q-182 0 -263.5 -66.5t-81.5 -211.5v-206h405v-171h-405v-460h730v-182h-943v642h-133z" />
<glyph unicode="&#xa4;" horiz-adv-x="1380" d="M108 128l181 225q-78 131 -78 387q0 246 74 372l-174 227l178 117l158 -211q90 48 255 48q158 0 249 -41l141 204l178 -115l-154 -219q81 -129 81 -382q0 -257 -81 -389l164 -223l-173 -128l-158 217q-91 -42 -247 -42q-164 0 -257 48l-178 -223zM414 735q0 -80 6 -139 t21 -102.5t36 -70.5t55 -43.5t73.5 -22.5t96.5 -6t97 6t74.5 22.5t55.5 43.5t36 70.5t21 102.5t6 139q0 85 -6 144.5t-21 102.5t-36 69t-56 41.5t-74 20.5t-97 5t-96.5 -5t-73.5 -20.5t-55.5 -41.5t-35.5 -69t-21 -102.5t-6 -144.5z" />
<glyph unicode="&#xa5;" horiz-adv-x="1298" d="M-46 1456h276q225 -282 436 -597q242 317 422 597h253q-267 -387 -493 -679h305v-161h-390v-179h390v-162h-390v-275h-213v275h-397v162h397v179h-397v161h317q-278 386 -516 679z" />
<glyph unicode="&#xa6;" horiz-adv-x="711" d="M251 232h211v-766h-211v766zM251 811v766h211v-766h-211z" />
<glyph unicode="&#xa7;" horiz-adv-x="1300" d="M115 578q0 65 23 131t63 120q-78 84 -78 228q0 111 41.5 194.5t119.5 136t188 78t251 25.5q103 0 215 -16.5t196 -43.5l-48 -179q-53 23 -157.5 37.5t-205.5 14.5q-92 0 -159.5 -12.5t-115.5 -39t-71.5 -71t-23.5 -107.5q0 -62 27.5 -100t102.5 -63.5t209 -35.5 q102 -9 182 -27.5t143 -49.5t103.5 -74.5t62 -102t21.5 -132.5q0 -130 -90 -248q78 -82 78 -231q0 -111 -40.5 -194.5t-118 -136t-187 -78t-250.5 -25.5q-105 0 -217 16t-195 43l48 181q54 -23 159.5 -38.5t204.5 -15.5q123 0 203 22.5t123 74t43 135.5q0 62 -27.5 100 t-102.5 63t-209 35q-260 23 -385.5 113t-125.5 273zM333 586q0 -66 32 -106t112.5 -64.5t224.5 -35.5q166 -13 249 -50q35 74 35 150q0 66 -32 106t-113.5 65.5t-224.5 35.5q-160 10 -249 46q-34 -52 -34 -147z" />
<glyph unicode="&#xa8;" horiz-adv-x="907" d="M134 1299q0 63 21.5 80.5t85.5 17.5q32 0 50 -3t31 -13.5t18 -29.5t5 -52q0 -68 -21 -88.5t-83 -20.5q-64 0 -85.5 20.5t-21.5 88.5zM554 1299q0 63 21 80.5t85 17.5q62 0 83.5 -18t21.5 -80q0 -68 -21.5 -88.5t-83.5 -20.5q-33 0 -51.5 4t-32 16t-18 33t-4.5 56z" />
<glyph unicode="&#xa9;" horiz-adv-x="1786" d="M142 737q0 148 20 262t62.5 197.5t102 140.5t146 91t187.5 48.5t231.5 14.5t231.5 -14.5t188 -48.5t147 -91t103 -140.5t63 -197.5t20 -262q0 -149 -20 -264.5t-62.5 -200.5t-103 -143t-146.5 -93t-187.5 -50.5t-233.5 -15.5q-111 0 -200.5 11t-168.5 36.5t-138 66 t-106 100t-76.5 139.5t-44.5 183t-15 231zM333 735q0 -94 7 -168.5t22.5 -135t38.5 -106t57.5 -79.5t75.5 -56t97 -35.5t117.5 -19t140.5 -5.5q109 0 187 10t144 36.5t108.5 70t72 111.5t42.5 160t13 217q0 97 -7.5 173t-23.5 136.5t-39 105t-58.5 77t-76.5 53.5t-98.5 33.5 t-119.5 17t-144 4.5q-80 0 -140.5 -4.5t-117.5 -17t-97 -33.5t-75 -53.5t-57.5 -77t-39 -105t-23 -136.5t-6.5 -173zM482 740q0 111 18 191t51.5 133.5t89 84.5t123.5 44t161 13q44 0 96.5 -5.5t101 -15.5t83.5 -21l-44 -159q-82 35 -229 35q-42 0 -73 -3t-58.5 -11t-46 -23 t-33.5 -37t-23.5 -55t-13 -76t-4.5 -100q0 -94 12.5 -152.5t44 -93.5t77 -48t118.5 -13q38 0 80.5 6t81 15t67.5 21l44 -155q-28 -10 -63 -19t-71.5 -15t-75 -10t-71.5 -4q-77 0 -136.5 9.5t-110.5 30.5t-86.5 56.5t-60.5 88t-37 124t-12 164.5z" />
<glyph unicode="&#xaa;" horiz-adv-x="879" d="M125 955q0 51 10 91t29.5 66.5t44 44t59.5 26.5t70 13t80 4q95 0 196 -22q0 60 -8.5 96t-33 57.5t-60.5 29t-98 7.5q-138 0 -220 -35l-29 121q156 37 272 37q84 0 141 -13t98 -45t59.5 -87.5t18.5 -139.5v-441q-64 -27 -153.5 -43t-168.5 -16q-49 0 -87 3.5t-71 11 t-56.5 20.5t-41.5 32t-29 45.5t-16.5 60t-5.5 76.5zM275 963q0 -81 35.5 -112.5t132.5 -31.5q87 0 171 29v228q-54 14 -171 14q-35 0 -58 -2t-45.5 -9.5t-35.5 -21t-21 -37t-8 -57.5z" />
<glyph unicode="&#xab;" horiz-adv-x="1319" d="M62 638l562 572l118 -122l-412 -444l412 -456l-114 -124zM578 638l562 572l116 -122l-412 -444l412 -456l-112 -124z" />
<glyph unicode="&#xac;" horiz-adv-x="1058" d="M64 683v184h918v-867h-213v683h-705z" />
<glyph unicode="&#xad;" horiz-adv-x="604" d="M64 489v186h477v-186h-477z" />
<glyph unicode="&#xae;" horiz-adv-x="1186" d="M115 988q0 118 19.5 203.5t55.5 143t95.5 91.5t133 48.5t173.5 14.5q101 0 175 -14.5t133.5 -48.5t96.5 -91.5t56 -143t19 -203.5q0 -115 -19 -200.5t-55.5 -143.5t-95.5 -93.5t-134 -51t-176 -15.5q-126 0 -212.5 24.5t-147.5 82.5t-89 155.5t-28 241.5zM263 988 q0 -112 17.5 -184t58.5 -114t100.5 -58t152.5 -16q96 0 156.5 16t102 58.5t58 113.5t16.5 184q0 80 -7 138t-24.5 99.5t-42 67.5t-64 41t-85 20.5t-110.5 5.5q-64 0 -108 -5.5t-83 -20.5t-63 -41t-42 -67.5t-25.5 -99.5t-7.5 -138zM372 716v548h326q72 0 109 -51t37 -131 q0 -90 -35.5 -129.5t-104.5 -39.5q80 -39 135 -197h-160q-10 35 -30 74.5t-44 68t-41 28.5h-50v-171h-142zM514 1003h132q52 0 52 75q0 68 -52 68h-132v-143z" />
<glyph unicode="&#xaf;" horiz-adv-x="1100" d="M269 1214v154h554v-154h-554z" />
<glyph unicode="&#xb0;" horiz-adv-x="879" d="M88 1034q0 109 14 187.5t40.5 130.5t70.5 83t97.5 43.5t128.5 12.5t129 -12.5t98 -43.5t71 -83t41 -130.5t14 -187.5t-14 -189t-41 -134.5t-70.5 -87.5t-98.5 -47t-129 -14q-93 0 -156 22.5t-108.5 76.5t-66 145.5t-20.5 227.5zM265 1032q0 -128 18 -198.5t54 -98 t102 -27.5q67 0 103.5 28t53 97t16.5 199q0 80 -5.5 133.5t-17 89.5t-33 55t-49 26t-68.5 7q-40 0 -66.5 -7t-48.5 -26t-34 -54.5t-18.5 -89.5t-6.5 -134z" />
<glyph unicode="&#xb1;" horiz-adv-x="1256" d="M123 60v187h1009v-187h-1009zM123 813v186h409v411h189v-411h411v-186h-411v-412h-189v412h-409z" />
<glyph unicode="&#xb2;" horiz-adv-x="845" d="M73 584q8 86 25.5 151.5t42.5 112t64 82.5t82.5 60.5t105.5 47.5q90 33 130.5 75.5t40.5 104.5t-45 86.5t-152 24.5q-57 0 -127 -10t-102 -24l-30 159q136 37 268 37q194 0 281 -61.5t87 -203.5q0 -104 -50 -177.5t-162 -115.5q-40 -14 -60.5 -22t-51.5 -21t-46.5 -22.5 t-35 -24.5t-29.5 -29.5t-18 -34.5t-12 -44h467v-151h-673z" />
<glyph unicode="&#xb3;" horiz-adv-x="833" d="M84 602l27 142q106 -34 240 -34q114 0 155.5 27.5t41.5 108.5q0 78 -41 103.5t-156 25.5h-84v143h82q105 0 142 24.5t37 95.5q0 64 -36.5 85.5t-144.5 21.5q-128 0 -228 -31l-27 140q136 37 273 37q185 0 267 -52.5t82 -168.5q0 -50 -8 -85t-28 -64.5t-58.5 -46 t-97.5 -21.5q62 -3 105 -20t66.5 -48t33.5 -69.5t10 -92.5q0 -141 -90 -200t-282 -59q-134 0 -281 38z" />
<glyph unicode="&#xb4;" horiz-adv-x="1018" d="M203 1186l252 270h224l-288 -270h-188z" />
<glyph unicode="&#xb5;" horiz-adv-x="1186" d="M142 -401l6 827v633h197v-568q0 -49 2.5 -86t9 -74t19 -63.5t32 -50t47.5 -37.5t67 -22t88 -8q122 0 227 34v875h199v-1003q-92 -37 -223 -61.5t-241 -24.5q-158 0 -237 46l4 -417h-197z" />
<glyph unicode="&#xb6;" horiz-adv-x="1380" d="M71 969q0 487 407 487h704v-1456h-196v508h-190v-508h-198v508h-126q-85 0 -153.5 25.5t-114 68.5t-76 102.5t-44 125t-13.5 139.5z" />
<glyph unicode="&#xb7;" horiz-adv-x="586" d="M146 630q0 45 7 71t25.5 40.5t43.5 19t69 4.5q46 0 72 -4.5t45 -19t26 -40.5t7 -71q0 -38 -5 -63.5t-14.5 -42.5t-28.5 -26t-42.5 -12.5t-59.5 -3.5q-43 0 -68.5 5.5t-44 22t-25.5 45t-7 75.5z" />
<glyph unicode="&#xb8;" horiz-adv-x="1353" d="M526 -387l42 100q62 -28 165 -28q61 0 82.5 12t21.5 50q0 42 -47.5 54.5t-177.5 4.5l75 194h88v-92q134 0 186 -34t52 -127q0 -97 -61 -134t-212 -37q-142 0 -214 37z" />
<glyph unicode="&#xb9;" horiz-adv-x="743" d="M88 1343l418 174v-919h-178v682l-194 -90z" />
<glyph unicode="&#xba;" horiz-adv-x="941" d="M121 1096q0 114 21.5 191t67 121.5t108 63.5t152.5 19q91 0 154 -19t108.5 -64t67 -121.5t21.5 -190.5t-21 -191.5t-66.5 -123.5t-108.5 -65.5t-155 -19.5q-90 0 -153 19.5t-108 65.5t-66.5 123.5t-21.5 191.5zM285 1092q0 -106 16.5 -161t55 -77.5t113.5 -22.5 q74 0 113 22.5t56 77.5t17 161q0 69 -6 113.5t-18 75t-35 46t-52 21.5t-75 6t-75.5 -6t-52.5 -21.5t-34.5 -46t-17 -75t-5.5 -113.5z" />
<glyph unicode="&#xbb;" horiz-adv-x="1319" d="M64 188l412 445l-412 455l113 124l565 -574l-562 -571zM580 188l410 445l-410 455l112 124l566 -574l-562 -571z" />
<glyph unicode="&#xbc;" horiz-adv-x="1712" d="M73 1343l416 174v-919h-176v682l-196 -90zM236 0l863 1456h200l-860 -1456h-203zM839 219v66q173 288 415 602h233v-515h124v-153h-124v-219h-171v219h-477zM1051 372h265v380q-157 -196 -265 -380z" />
<glyph unicode="&#xbd;" horiz-adv-x="1712" d="M60 1343l416 174v-919h-175v682l-197 -90zM223 0l863 1456h201l-861 -1456h-203zM967 0q6 72 18.5 128.5t33 101t45 77.5t60 60t73 46.5t88.5 39.5q26 9 47.5 19.5t39.5 21.5t31.5 23t23.5 25t16 27.5t9.5 30.5t3.5 33q0 62 -44.5 86.5t-151.5 24.5q-58 0 -127 -10 t-103 -24l-29 159q139 38 267 38q194 0 282 -62t88 -203q0 -69 -20 -122.5t-68 -98t-125 -72.5q-39 -14 -61 -22.5t-51.5 -21t-45.5 -22.5t-35 -24.5t-29 -30t-18 -35.5t-11 -43h466v-150h-673z" />
<glyph unicode="&#xbe;" horiz-adv-x="1712" d="M69 602l27 142q106 -34 239 -34q115 0 156 27.5t41 108.5q0 78 -40.5 103.5t-156.5 25.5h-82v143h82q104 0 141.5 24.5t37.5 95.5q0 64 -37 85.5t-144 21.5q-129 0 -229 -31l-29 140q140 37 276 37q184 0 265.5 -52.5t81.5 -168.5q0 -50 -8 -85t-28 -64.5t-58 -46 t-96 -21.5q119 -6 167 -63.5t48 -166.5q0 -141 -91 -200t-281 -59q-138 0 -282 38zM363 0l861 1456h203l-861 -1456h-203zM857 219v66q170 290 411 602h236v-515h121v-153h-121v-219h-173v219h-474zM1065 372h266v380q-161 -200 -266 -380z" />
<glyph unicode="&#xbf;" horiz-adv-x="999" d="M73 2q0 62 9.5 119t29.5 111t48 104.5t68 103.5t87 104t107 110h220q-177 -174 -255 -325.5t-78 -326.5q0 -55 12.5 -93t43.5 -66.5t85 -42t134.5 -13.5t160.5 12t132 34l50 -188q-41 -14 -106 -26.5t-131 -19t-116 -6.5q-135 0 -231.5 26.5t-155.5 79.5t-86.5 127.5 t-27.5 175.5zM395 953q0 44 6.5 70.5t24 41t42 19t66.5 4.5q41 0 64 -4.5t40 -19t23.5 -41t6.5 -70.5q0 -41 -6.5 -65.5t-23.5 -38t-40 -18t-64 -4.5q-42 0 -66.5 4.5t-42 18t-24 38t-6.5 65.5z" />
<glyph unicode="&#xc0;" horiz-adv-x="1409" d="M2 0q252 757 539 1456h344q123 -375 269 -772t269 -684h-239q-120 304 -156 405h-675q-62 -186 -132 -405h-219zM347 1830h239l295 -269h-202zM414 586h551q-101 278 -232 694h-58q-128 -318 -261 -694z" />
<glyph unicode="&#xc1;" horiz-adv-x="1409" d="M2 0q252 757 539 1456h344q123 -375 269 -772t269 -684h-239q-120 304 -156 405h-675q-62 -186 -132 -405h-219zM414 586h551q-101 278 -232 694h-58q-128 -318 -261 -694zM541 1561l276 269h238l-330 -269h-184z" />
<glyph unicode="&#xc2;" horiz-adv-x="1409" d="M2 0q252 757 539 1456h344q123 -375 269 -772t269 -684h-239q-120 304 -156 405h-675q-62 -186 -132 -405h-219zM349 1561q43 44 127.5 134t127.5 135h203l263 -269h-205l-163 175l-156 -175h-197zM414 586h551q-101 278 -232 694h-58q-128 -318 -261 -694z" />
<glyph unicode="&#xc3;" horiz-adv-x="1409" d="M2 0q252 757 539 1456h344q123 -375 269 -772t269 -684h-239q-120 304 -156 405h-675q-62 -186 -132 -405h-219zM330 1650q47 84 97.5 125t120.5 41q43 0 87.5 -19t76 -41t70 -41t71.5 -19q39 0 67.5 28.5t52.5 99.5l107 -86q-32 -89 -94 -140.5t-147 -51.5 q-38 0 -81.5 20t-75.5 43.5t-71.5 43.5t-72 20t-60.5 -27t-54 -87zM414 586h551q-101 278 -232 694h-58q-128 -318 -261 -694z" />
<glyph unicode="&#xc4;" horiz-adv-x="1409" d="M2 0q252 757 539 1456h344q123 -375 269 -772t269 -684h-239q-120 304 -156 405h-675q-62 -186 -132 -405h-219zM385 1688q0 62 21 80t85 18q62 0 83.5 -18t21.5 -80q0 -68 -21.5 -88.5t-83.5 -20.5q-33 0 -51.5 3.5t-32 15.5t-18 33t-4.5 57zM414 586h551 q-101 278 -232 694h-58q-128 -318 -261 -694zM804 1688q0 62 21.5 80t85.5 18q32 0 50 -3t31.5 -13.5t18 -29.5t4.5 -52q0 -68 -21 -88.5t-83 -20.5q-64 0 -85.5 20.5t-21.5 88.5z" />
<glyph unicode="&#xc5;" horiz-adv-x="1409" d="M2 0q252 757 539 1456h53q-124 38 -124 186q0 106 54.5 153t183.5 47q120 0 179.5 -48.5t59.5 -151.5q0 -148 -124 -186h62q123 -375 269 -772t269 -684h-239q-120 304 -156 405h-675q-62 -186 -132 -405h-219zM414 586h551q-101 278 -232 694h-58q-128 -318 -261 -694z M596 1638q0 -33 9.5 -54t34.5 -34t68 -13q64 0 89.5 25.5t25.5 75.5q0 51 -25 74.5t-90 23.5q-43 0 -68 -11.5t-34.5 -32t-9.5 -54.5z" />
<glyph unicode="&#xc6;" horiz-adv-x="2015" d="M-273 0q508 761 1029 1456h1199v-182h-815v-413h491v-178h-491v-501h815v-182h-1026v405h-682q-157 -230 -265 -405h-255zM367 586h562v694h-64q-273 -368 -498 -694z" />
<glyph unicode="&#xc7;" horiz-adv-x="1246" d="M121 742q0 148 18 262t56 197t91.5 139t131.5 89.5t168.5 47.5t209.5 14q65 0 139.5 -7t146 -19t126.5 -28l-52 -190q-61 23 -156 36.5t-179 13.5q-69 0 -119 -3.5t-98.5 -14t-82 -29t-63.5 -48t-49 -70.5t-32.5 -98t-19.5 -129.5t-6 -164.5q0 -83 5 -149t14.5 -120.5 t26 -96.5t37 -74t50.5 -55t63 -38t77 -24t90.5 -12.5t106.5 -3.5q83 0 178.5 13.5t156.5 34.5l52 -189q-42 -13 -94 -23.5t-105.5 -17.5t-108.5 -11t-104 -4v-62q133 0 185.5 -34t52.5 -127q0 -97 -61.5 -134t-212.5 -37q-76 0 -125 8.5t-87 28.5l42 100q61 -28 164 -28 q60 0 82.5 12t22.5 50q0 42 -47.5 54.5t-178.5 4.5l65 168q-120 8 -210.5 37t-161 86t-115 144.5t-67.5 211.5t-23 289z" />
<glyph unicode="&#xc8;" horiz-adv-x="1284" d="M199 0v1456h1025v-182h-815v-413h579v-180h-579v-499h815v-182h-1025zM435 1830h240l294 -269h-202z" />
<glyph unicode="&#xc9;" horiz-adv-x="1284" d="M199 0v1456h1025v-182h-815v-413h579v-180h-579v-499h815v-182h-1025zM537 1561l276 269h238l-330 -269h-184z" />
<glyph unicode="&#xca;" horiz-adv-x="1284" d="M199 0v1456h1025v-182h-815v-413h579v-180h-579v-499h815v-182h-1025zM369 1561q43 44 127.5 134t127.5 135h203l263 -269h-205l-162 175l-157 -175h-197z" />
<glyph unicode="&#xcb;" horiz-adv-x="1284" d="M199 0v1456h1025v-182h-815v-413h579v-180h-579v-499h815v-182h-1025zM411 1688q0 62 21.5 80t85.5 18q32 0 50 -3t31.5 -13.5t18 -29.5t4.5 -52q0 -68 -21 -88.5t-83 -20.5q-63 0 -85 20.5t-22 88.5zM831 1688q0 62 22 80t85 18t83.5 -18t20.5 -80q0 -68 -21 -88.5 t-83 -20.5q-63 0 -85 20.5t-22 88.5z" />
<glyph unicode="&#xcc;" horiz-adv-x="604" d="M-67 1830h240l295 -269h-203zM199 0v1456h210v-1456h-210z" />
<glyph unicode="&#xcd;" horiz-adv-x="604" d="M148 1561l276 269h238l-329 -269h-185zM199 0v1456h210v-1456h-210z" />
<glyph unicode="&#xce;" horiz-adv-x="604" d="M-54 1561q43 44 127.5 134t127.5 135h202l263 -269h-204l-163 175l-157 -175h-196zM199 0v1456h210v-1456h-210z" />
<glyph unicode="&#xcf;" horiz-adv-x="604" d="M-8 1688q0 62 21 80t85 18q62 0 83.5 -18t21.5 -80q0 -68 -21.5 -88.5t-83.5 -20.5q-63 0 -84.5 20.5t-21.5 88.5zM199 0v1456h210v-1456h-210zM411 1688q0 62 21.5 80t85.5 18q32 0 50 -3t31.5 -13.5t18 -29.5t4.5 -52q0 -68 -21 -88.5t-83 -20.5q-63 0 -85 20.5 t-22 88.5z" />
<glyph unicode="&#xd0;" horiz-adv-x="1503" d="M86 675v152h113v629h501q118 0 209.5 -14.5t170 -47.5t133 -88t93 -135t57 -188.5t18.5 -249.5q0 -168 -27 -292.5t-79.5 -209t-136.5 -136t-190 -73.5t-248 -22h-501v675h-113zM409 182h278q77 0 135.5 7t109 23.5t86 45.5t63 70t43.5 100t24 133t8 170q0 89 -6 158 t-19 124t-31.5 94.5t-48 68.5t-63 47t-82 28.5t-99 14.5t-120.5 4h-278v-443h337v-152h-337v-493z" />
<glyph unicode="&#xd1;" horiz-adv-x="1570" d="M199 0v1456h281q326 -497 680 -1141v1141h213v-1456h-259q-317 586 -707 1202v-1202h-208zM428 1650q47 84 97.5 125t120.5 41q42 0 87 -19t76.5 -41t70 -41t71.5 -19q39 0 68 28.5t53 99.5l106 -86q-16 -44 -39 -79t-53 -60t-67.5 -39t-80.5 -14q-38 0 -81.5 20 t-75.5 43.5t-71.5 43.5t-71.5 20q-67 0 -116 -114z" />
<glyph unicode="&#xd2;" horiz-adv-x="1595" d="M121 737q0 149 18 262.5t56 197t92 140.5t132 91t169 48.5t209.5 14.5t209.5 -14.5t169 -48.5t132 -91t92.5 -140.5t56.5 -197t18 -262.5q0 -128 -13.5 -231t-40 -183t-68.5 -139.5t-95.5 -100t-125 -66t-152.5 -36.5t-182 -11q-118 0 -209.5 15.5t-169.5 50.5t-132 93 t-92 143t-56 200.5t-18 264.5zM351 733q0 -120 8.5 -206t31 -151.5t54.5 -105.5t84 -65t115.5 -34.5t153.5 -9.5t154 9.5t116.5 34.5t85.5 65t55 105.5t31.5 151.5t9.5 206q0 83 -4.5 148.5t-13 120.5t-23.5 96.5t-33.5 74t-46.5 54.5t-59.5 37.5t-75 23.5t-90 12t-106.5 4 q-54 0 -96.5 -3t-82.5 -10t-70 -18t-57.5 -29.5t-46.5 -42t-36 -56.5t-27 -73t-17.5 -92t-10.5 -112t-3 -135zM455 1830h241l294 -269h-203z" />
<glyph unicode="&#xd3;" horiz-adv-x="1595" d="M121 737q0 149 18 262.5t56 197t92 140.5t132 91t169 48.5t209.5 14.5t209.5 -14.5t169 -48.5t132 -91t92.5 -140.5t56.5 -197t18 -262.5q0 -128 -13.5 -231t-40 -183t-68.5 -139.5t-95.5 -100t-125 -66t-152.5 -36.5t-182 -11q-118 0 -209.5 15.5t-169.5 50.5t-132 93 t-92 143t-56 200.5t-18 264.5zM351 733q0 -120 8.5 -206t31 -151.5t54.5 -105.5t84 -65t115.5 -34.5t153.5 -9.5t154 9.5t116.5 34.5t85.5 65t55 105.5t31.5 151.5t9.5 206q0 83 -4.5 148.5t-13 120.5t-23.5 96.5t-33.5 74t-46.5 54.5t-59.5 37.5t-75 23.5t-90 12t-106.5 4 q-54 0 -96.5 -3t-82.5 -10t-70 -18t-57.5 -29.5t-46.5 -42t-36 -56.5t-27 -73t-17.5 -92t-10.5 -112t-3 -135zM537 1561l276 269h238l-330 -269h-184z" />
<glyph unicode="&#xd4;" horiz-adv-x="1595" d="M121 737q0 149 18 262.5t56 197t92 140.5t132 91t169 48.5t209.5 14.5t209.5 -14.5t169 -48.5t132 -91t92.5 -140.5t56.5 -197t18 -262.5q0 -128 -13.5 -231t-40 -183t-68.5 -139.5t-95.5 -100t-125 -66t-152.5 -36.5t-182 -11q-118 0 -209.5 15.5t-169.5 50.5t-132 93 t-92 143t-56 200.5t-18 264.5zM351 733q0 -120 8.5 -206t31 -151.5t54.5 -105.5t84 -65t115.5 -34.5t153.5 -9.5t154 9.5t116.5 34.5t85.5 65t55 105.5t31.5 151.5t9.5 206q0 83 -4.5 148.5t-13 120.5t-23.5 96.5t-33.5 74t-46.5 54.5t-59.5 37.5t-75 23.5t-90 12t-106.5 4 q-54 0 -96.5 -3t-82.5 -10t-70 -18t-57.5 -29.5t-46.5 -42t-36 -56.5t-27 -73t-17.5 -92t-10.5 -112t-3 -135zM435 1561q42 44 127 134t128 135h201l265 -269h-205l-164 175l-157 -175h-195z" />
<glyph unicode="&#xd5;" horiz-adv-x="1595" d="M121 737q0 149 18 262.5t56 197t92 140.5t132 91t169 48.5t209.5 14.5t209.5 -14.5t169 -48.5t132 -91t92.5 -140.5t56.5 -197t18 -262.5q0 -128 -13.5 -231t-40 -183t-68.5 -139.5t-95.5 -100t-125 -66t-152.5 -36.5t-182 -11q-118 0 -209.5 15.5t-169.5 50.5t-132 93 t-92 143t-56 200.5t-18 264.5zM351 733q0 -120 8.5 -206t31 -151.5t54.5 -105.5t84 -65t115.5 -34.5t153.5 -9.5t154 9.5t116.5 34.5t85.5 65t55 105.5t31.5 151.5t9.5 206q0 83 -4.5 148.5t-13 120.5t-23.5 96.5t-33.5 74t-46.5 54.5t-59.5 37.5t-75 23.5t-90 12t-106.5 4 q-54 0 -96.5 -3t-82.5 -10t-70 -18t-57.5 -29.5t-46.5 -42t-36 -56.5t-27 -73t-17.5 -92t-10.5 -112t-3 -135zM418 1650q47 84 97.5 125t119.5 41q43 0 88 -19t76 -41t70 -41t71 -19q40 0 68 28.5t53 99.5l107 -86q-21 -58 -55 -100.5t-81.5 -67t-104.5 -24.5 q-38 0 -81.5 20t-75.5 43.5t-71.5 43.5t-72 20t-60.5 -27t-54 -87z" />
<glyph unicode="&#xd6;" horiz-adv-x="1595" d="M121 737q0 149 18 262.5t56 197t92 140.5t132 91t169 48.5t209.5 14.5t209.5 -14.5t169 -48.5t132 -91t92.5 -140.5t56.5 -197t18 -262.5q0 -128 -13.5 -231t-40 -183t-68.5 -139.5t-95.5 -100t-125 -66t-152.5 -36.5t-182 -11q-118 0 -209.5 15.5t-169.5 50.5t-132 93 t-92 143t-56 200.5t-18 264.5zM351 733q0 -120 8.5 -206t31 -151.5t54.5 -105.5t84 -65t115.5 -34.5t153.5 -9.5t154 9.5t116.5 34.5t85.5 65t55 105.5t31.5 151.5t9.5 206q0 83 -4.5 148.5t-13 120.5t-23.5 96.5t-33.5 74t-46.5 54.5t-59.5 37.5t-75 23.5t-90 12t-106.5 4 q-54 0 -96.5 -3t-82.5 -10t-70 -18t-57.5 -29.5t-46.5 -42t-36 -56.5t-27 -73t-17.5 -92t-10.5 -112t-3 -135zM480 1688q0 62 21.5 80t84.5 18t84.5 -18t21.5 -80q0 -68 -21.5 -88.5t-84.5 -20.5q-32 0 -51 3.5t-32 15.5t-18 33t-5 57zM901 1688q0 33 4.5 52t18 29.5 t32 13.5t51.5 3q62 0 83.5 -18t21.5 -80q0 -20 -2 -35.5t-5 -27t-9.5 -19.5t-14 -13.5t-19 -8.5t-24.5 -4t-31 -1q-33 0 -51.5 3.5t-32 15.5t-18 33t-4.5 57z" />
<glyph unicode="&#xd7;" horiz-adv-x="1256" d="M205 464l288 290l-288 290l132 130l287 -289l291 293l136 -134l-293 -292l291 -288l-132 -134l-291 290l-287 -290z" />
<glyph unicode="&#xd8;" horiz-adv-x="1595" d="M64 0l170 194q-113 173 -113 543q0 149 18 262.5t56 197t92 140.5t132 91t169 48.5t210 14.5q302 0 452 -110q20 22 62 75h221q-117 -134 -167 -194q109 -175 109 -525q0 -128 -14 -231.5t-40 -183.5t-68.5 -139t-96 -100t-124.5 -66t-152 -36t-182 -11q-300 0 -449 108 q-27 -34 -67 -78h-218zM351 771q0 -115 4 -169q9 -135 40 -220q106 124 227 265.5t266.5 312t227.5 266.5q-50 43 -126 60.5t-192 17.5q-89 0 -150 -8t-114 -30t-85 -58.5t-55 -97t-33 -142.5t-10 -197zM489 238q48 -42 122.5 -59.5t186.5 -17.5q87 0 150 9t115.5 32.5 t85.5 61.5t56 99t33 142t12 193q0 63 -5 167q-9 130 -39 211q-205 -236 -717 -838z" />
<glyph unicode="&#xd9;" horiz-adv-x="1545" d="M173 472v984h216v-963q0 -57 7 -102t21.5 -79.5t38 -59.5t53 -42.5t70.5 -27.5t87.5 -14.5t106.5 -4.5q83 0 142 8.5t107.5 30t77.5 59t44.5 94.5t15.5 138v963h213v-984q0 -87 -13.5 -157t-38.5 -122t-64.5 -90.5t-87 -64t-111 -40.5t-132 -21.5t-153.5 -6.5t-152.5 6.5 t-131 21.5t-111.5 40.5t-87.5 64t-64.5 90.5t-39 122t-14 157zM468 1830h240l295 -269h-203z" />
<glyph unicode="&#xda;" horiz-adv-x="1545" d="M173 472v984h216v-963q0 -57 7 -102t21.5 -79.5t38 -59.5t53 -42.5t70.5 -27.5t87.5 -14.5t106.5 -4.5q83 0 142 8.5t107.5 30t77.5 59t44.5 94.5t15.5 138v963h213v-984q0 -87 -13.5 -157t-38.5 -122t-64.5 -90.5t-87 -64t-111 -40.5t-132 -21.5t-153.5 -6.5t-152.5 6.5 t-131 21.5t-111.5 40.5t-87.5 64t-64.5 90.5t-39 122t-14 157zM568 1561l276 269h238l-330 -269h-184z" />
<glyph unicode="&#xdb;" horiz-adv-x="1545" d="M173 472v984h216v-963q0 -57 7 -102t21.5 -79.5t38 -59.5t53 -42.5t70.5 -27.5t87.5 -14.5t106.5 -4.5q83 0 142 8.5t107.5 30t77.5 59t44.5 94.5t15.5 138v963h213v-984q0 -87 -13.5 -157t-38.5 -122t-64.5 -90.5t-87 -64t-111 -40.5t-132 -21.5t-153.5 -6.5t-152.5 6.5 t-131 21.5t-111.5 40.5t-87.5 64t-64.5 90.5t-39 122t-14 157zM409 1561q43 44 127.5 134t127.5 135h203l263 -269h-205l-162 175l-157 -175h-197z" />
<glyph unicode="&#xdc;" horiz-adv-x="1545" d="M173 472v984h216v-963q0 -57 7 -102t21.5 -79.5t38 -59.5t53 -42.5t70.5 -27.5t87.5 -14.5t106.5 -4.5q83 0 142 8.5t107.5 30t77.5 59t44.5 94.5t15.5 138v963h213v-984q0 -87 -13.5 -157t-38.5 -122t-64.5 -90.5t-87 -64t-111 -40.5t-132 -21.5t-153.5 -6.5t-152.5 6.5 t-131 21.5t-111.5 40.5t-87.5 64t-64.5 90.5t-39 122t-14 157zM451 1688q0 62 21.5 80t85.5 18q62 0 83 -18t21 -80q0 -68 -21 -88.5t-83 -20.5q-64 0 -85.5 20.5t-21.5 88.5zM871 1688q0 62 21 80t85 18q63 0 84 -18t21 -80q0 -68 -21.5 -88.5t-83.5 -20.5q-33 0 -51.5 3.5 t-31.5 15.5t-18 33t-5 57z" />
<glyph unicode="&#xdd;" horiz-adv-x="1298" d="M-46 1456h276q225 -282 436 -597q242 317 422 597h253q-293 -432 -578 -792v-664h-213v664q-312 449 -596 792zM497 1561l276 269h238l-330 -269h-184z" />
<glyph unicode="&#xde;" horiz-adv-x="1380" d="M199 0v1456h210v-230h494q407 0 407 -484q0 -62 -9.5 -118.5t-29.5 -109t-52.5 -95.5t-75.5 -75t-103 -49.5t-131 -17.5h-500v-277h-210zM409 460h452q106 0 160.5 74.5t54.5 207.5q0 147 -52.5 224.5t-154.5 77.5h-460v-584z" />
<glyph unicode="&#xdf;" horiz-adv-x="1326" d="M153 0v1112q0 98 37 171.5t105.5 118.5t159.5 67t205 22q258 0 386 -89t128 -274q0 -59 -6.5 -104t-25.5 -90.5t-52 -75.5t-88 -52t-131 -29q81 -3 141 -24t97.5 -54t60.5 -82t31.5 -101.5t8.5 -118.5q0 -120 -33 -201.5t-105.5 -131.5t-178.5 -72t-260 -22q-71 0 -125 7 l20 176q104 -7 112 -7q83 0 141.5 9.5t99 28.5t63.5 52t32.5 74.5t9.5 100.5q0 154 -71 215t-249 61h-62v170h60q111 0 175.5 26t91 77t26.5 136q0 118 -67.5 167t-231.5 49q-76 0 -133.5 -14.5t-96 -42.5t-58 -68.5t-19.5 -94.5v-1092h-198z" />
<glyph unicode="&#xe0;" horiz-adv-x="1150" d="M111 325q0 64 11 114.5t29.5 87t48 63t62.5 43t77.5 26t89 13t99.5 3.5q128 0 283 -31q0 48 -4 84t-12.5 66t-24.5 49.5t-37 34t-52.5 22.5t-69 11.5t-89.5 3.5q-186 0 -313 -50l-42 171q192 52 387 52q121 0 202 -19t138 -66t83 -126.5t26 -199.5v-623 q-62 -25 -141.5 -44.5t-160 -29.5t-151.5 -10q-124 0 -204 17t-134.5 58t-77.5 108.5t-23 171.5zM271 1456h226l251 -270h-186zM323 337q0 -46 4.5 -77.5t16 -55t27.5 -37t45 -22t62.5 -11t83.5 -2.5q132 0 249 41v324q-97 23 -247 23q-49 0 -80.5 -2t-61 -8.5t-46.5 -19 t-30 -33t-18 -50t-5 -70.5z" />
<glyph unicode="&#xe1;" horiz-adv-x="1150" d="M111 325q0 64 11 114.5t29.5 87t48 63t62.5 43t77.5 26t89 13t99.5 3.5q128 0 283 -31q0 48 -4 84t-12.5 66t-24.5 49.5t-37 34t-52.5 22.5t-69 11.5t-89.5 3.5q-186 0 -313 -50l-42 171q192 52 387 52q121 0 202 -19t138 -66t83 -126.5t26 -199.5v-623 q-62 -25 -141.5 -44.5t-160 -29.5t-151.5 -10q-124 0 -204 17t-134.5 58t-77.5 108.5t-23 171.5zM323 337q0 -46 4.5 -77.5t16 -55t27.5 -37t45 -22t62.5 -11t83.5 -2.5q132 0 249 41v324q-97 23 -247 23q-49 0 -80.5 -2t-61 -8.5t-46.5 -19t-30 -33t-18 -50t-5 -70.5z M403 1186l253 270h223l-287 -270h-189z" />
<glyph unicode="&#xe2;" horiz-adv-x="1150" d="M111 325q0 64 11 114.5t29.5 87t48 63t62.5 43t77.5 26t89 13t99.5 3.5q128 0 283 -31q0 48 -4 84t-12.5 66t-24.5 49.5t-37 34t-52.5 22.5t-69 11.5t-89.5 3.5q-186 0 -313 -50l-42 171q192 52 387 52q121 0 202 -19t138 -66t83 -126.5t26 -199.5v-623 q-62 -25 -141.5 -44.5t-160 -29.5t-151.5 -10q-124 0 -204 17t-134.5 58t-77.5 108.5t-23 171.5zM223 1186q43 45 128 135t127 135h203l264 -270h-210q-26 29 -79.5 85t-79.5 85q-38 -45 -154 -170h-199zM323 337q0 -46 4.5 -77.5t16 -55t27.5 -37t45 -22t62.5 -11 t83.5 -2.5q132 0 249 41v324q-97 23 -247 23q-49 0 -80.5 -2t-61 -8.5t-46.5 -19t-30 -33t-18 -50t-5 -70.5z" />
<glyph unicode="&#xe3;" horiz-adv-x="1150" d="M111 325q0 64 11 114.5t29.5 87t48 63t62.5 43t77.5 26t89 13t99.5 3.5q128 0 283 -31q0 48 -4 84t-12.5 66t-24.5 49.5t-37 34t-52.5 22.5t-69 11.5t-89.5 3.5q-186 0 -313 -50l-42 171q192 52 387 52q121 0 202 -19t138 -66t83 -126.5t26 -199.5v-623 q-62 -25 -141.5 -44.5t-160 -29.5t-151.5 -10q-124 0 -204 17t-134.5 58t-77.5 108.5t-23 171.5zM199 1276q48 85 99.5 127t121.5 42q31 0 60.5 -9t51 -22.5t45 -29.5t42.5 -30t42.5 -23t46.5 -9q39 0 66 28.5t53 100.5l109 -85q-71 -192 -234 -192q-33 0 -65.5 13 t-59.5 31.5t-53.5 37t-56 31t-56.5 12.5q-17 0 -32 -6t-29.5 -20t-28 -36.5t-26.5 -54.5zM323 337q0 -46 4.5 -77.5t16 -55t27.5 -37t45 -22t62.5 -11t83.5 -2.5q132 0 249 41v324q-97 23 -247 23q-49 0 -80.5 -2t-61 -8.5t-46.5 -19t-30 -33t-18 -50t-5 -70.5z" />
<glyph unicode="&#xe4;" horiz-adv-x="1150" d="M111 325q0 64 11 114.5t29.5 87t48 63t62.5 43t77.5 26t89 13t99.5 3.5q128 0 283 -31q0 48 -4 84t-12.5 66t-24.5 49.5t-37 34t-52.5 22.5t-69 11.5t-89.5 3.5q-186 0 -313 -50l-42 171q192 52 387 52q121 0 202 -19t138 -66t83 -126.5t26 -199.5v-623 q-62 -25 -141.5 -44.5t-160 -29.5t-151.5 -10q-124 0 -204 17t-134.5 58t-77.5 108.5t-23 171.5zM247 1299q0 63 21 80.5t85 17.5q62 0 83.5 -18t21.5 -80q0 -35 -5 -56t-18 -33t-31.5 -16t-50.5 -4q-33 0 -51.5 4t-32 16t-18 33t-4.5 56zM323 337q0 -46 4.5 -77.5t16 -55 t27.5 -37t45 -22t62.5 -11t83.5 -2.5q132 0 249 41v324q-97 23 -247 23q-49 0 -80.5 -2t-61 -8.5t-46.5 -19t-30 -33t-18 -50t-5 -70.5zM666 1299q0 63 21.5 80.5t85.5 17.5q32 0 50 -3t31.5 -13.5t18 -29.5t4.5 -52q0 -68 -21 -88.5t-83 -20.5q-63 0 -85 20.5t-22 88.5z " />
<glyph unicode="&#xe5;" horiz-adv-x="1150" d="M111 325q0 64 11 114.5t29.5 87t48 63t62.5 43t77.5 26t89 13t99.5 3.5q128 0 283 -31q0 48 -4 84t-12.5 66t-24.5 49.5t-37 34t-52.5 22.5t-69 11.5t-89.5 3.5q-186 0 -313 -50l-42 171q192 52 387 52q121 0 202 -19t138 -66t83 -126.5t26 -199.5v-623 q-62 -25 -141.5 -44.5t-160 -29.5t-151.5 -10q-124 0 -204 17t-134.5 58t-77.5 108.5t-23 171.5zM323 337q0 -46 4.5 -77.5t16 -55t27.5 -37t45 -22t62.5 -11t83.5 -2.5q132 0 249 41v324q-97 23 -247 23q-49 0 -80.5 -2t-61 -8.5t-46.5 -19t-30 -33t-18 -50t-5 -70.5z M347 1343q0 107 54 153.5t183 46.5q121 0 180 -47.5t59 -152.5q0 -103 -59.5 -152t-179 -49t-178.5 49t-59 152zM472 1341q0 -50 25 -75t87 -25q65 0 90.5 25t25.5 75q0 51 -25.5 74.5t-90.5 23.5q-63 0 -87.5 -23.5t-24.5 -74.5z" />
<glyph unicode="&#xe6;" horiz-adv-x="1824" d="M111 325q0 64 11 114.5t29.5 87t48.5 63t63 43t77.5 26t88.5 13t99 3.5q128 0 283 -31q0 49 -3.5 84.5t-11.5 65t-23 49t-36 34t-52.5 22t-70 11t-92.5 3.5q-191 0 -313 -48l-42 171q192 52 387 52q156 0 242 -34t127 -121q32 57 81.5 91.5t116 49t159.5 14.5 q83 0 144.5 -11t114.5 -37t88 -70.5t59.5 -111t34 -158t7.5 -211.5h-721q1 -86 14 -146t36.5 -99t63 -61t86.5 -30.5t115 -8.5q61 0 150 14t151 36l38 -164q-82 -26 -184 -43t-175 -17q-222 0 -331 88q-62 -42 -186 -65t-235 -23q-124 0 -204 17t-134.5 58t-77.5 108.5 t-23 171.5zM323 337q0 -29 1.5 -50t5 -41t10 -34t15.5 -27t23 -21t31 -15t40 -10.5t50.5 -5t62.5 -1.5q72 0 159 16.5t138 43.5q-32 74 -41 142t-9 163q-100 23 -245 23q-49 0 -80.5 -2t-61.5 -8.5t-46 -18.5t-29.5 -32.5t-18.5 -50t-5 -71.5zM1009 650h522q-2 68 -12 115 t-27 78.5t-46.5 48.5t-66 24t-90.5 7q-72 0 -119 -11t-82.5 -41.5t-53.5 -83.5t-25 -137z" />
<glyph unicode="&#xe7;" horiz-adv-x="977" d="M119 534q0 81 9 148.5t27 121t43 96t59.5 74t74 53.5t88.5 35.5t102 19.5t116 6q73 0 163.5 -14t149.5 -36l-52 -175q-109 48 -253 48q-58 0 -99 -5.5t-79 -20.5t-62 -41.5t-42.5 -68.5t-27 -102.5t-8.5 -142.5q0 -66 6.5 -118.5t19 -93t32.5 -69.5t44.5 -48.5t58.5 -31 t71.5 -16.5t85.5 -5q125 0 253 53l52 -173q-59 -26 -148.5 -42t-164.5 -16h-16v-62q91 0 141 -14t74 -49t24 -98q0 -97 -61.5 -134t-213.5 -37q-75 0 -124 8.5t-88 28.5l42 100q62 -28 164 -28q25 0 41.5 1.5t29.5 5.5t20 11t10.5 17.5t3.5 26.5q0 29 -19.5 43t-70 18 t-135.5 -2l64 171q-99 11 -172 46t-126 100t-80 167.5t-27 243.5z" />
<glyph unicode="&#xe8;" horiz-adv-x="1146" d="M119 534q0 125 21 219t60 158t99.5 103.5t134.5 56.5t170 17q82 0 144 -11t114.5 -37t87.5 -70.5t59.5 -111t34 -158t7.5 -211.5h-721q1 -86 14 -146t36 -99t62.5 -61t87.5 -30.5t116 -8.5q38 0 91.5 6t110.5 18t99 26l37 -164q-81 -26 -184 -43t-178 -17 q-97 0 -172.5 17t-139 57t-104.5 104t-64 161t-23 225zM323 1456h227l250 -270h-186zM333 650h522q-4 85 -18 137.5t-44 83t-71.5 41.5t-109.5 11q-59 0 -101.5 -8.5t-75 -27t-53 -50.5t-33 -77.5t-16.5 -109.5z" />
<glyph unicode="&#xe9;" horiz-adv-x="1146" d="M119 534q0 125 21 219t60 158t99.5 103.5t134.5 56.5t170 17q82 0 144 -11t114.5 -37t87.5 -70.5t59.5 -111t34 -158t7.5 -211.5h-721q1 -86 14 -146t36 -99t62.5 -61t87.5 -30.5t116 -8.5q38 0 91.5 6t110.5 18t99 26l37 -164q-81 -26 -184 -43t-178 -17 q-97 0 -172.5 17t-139 57t-104.5 104t-64 161t-23 225zM333 650h522q-4 85 -18 137.5t-44 83t-71.5 41.5t-109.5 11q-59 0 -101.5 -8.5t-75 -27t-53 -50.5t-33 -77.5t-16.5 -109.5zM428 1186l253 270h224l-289 -270h-188z" />
<glyph unicode="&#xea;" horiz-adv-x="1146" d="M119 534q0 125 21 219t60 158t99.5 103.5t134.5 56.5t170 17q82 0 144 -11t114.5 -37t87.5 -70.5t59.5 -111t34 -158t7.5 -211.5h-721q1 -86 14 -146t36 -99t62.5 -61t87.5 -30.5t116 -8.5q38 0 91.5 6t110.5 18t99 26l37 -164q-81 -26 -184 -43t-178 -17 q-97 0 -172.5 17t-139 57t-104.5 104t-64 161t-23 225zM255 1186q43 45 127.5 135t127.5 135h202l263 -270h-208q-27 29 -80 85t-79 85q-25 -29 -155 -170h-198zM333 650h522q-4 85 -18 137.5t-44 83t-71.5 41.5t-109.5 11q-59 0 -101.5 -8.5t-75 -27t-53 -50.5t-33 -77.5 t-16.5 -109.5z" />
<glyph unicode="&#xeb;" horiz-adv-x="1146" d="M119 534q0 125 21 219t60 158t99.5 103.5t134.5 56.5t170 17q82 0 144 -11t114.5 -37t87.5 -70.5t59.5 -111t34 -158t7.5 -211.5h-721q1 -86 14 -146t36 -99t62.5 -61t87.5 -30.5t116 -8.5q38 0 91.5 6t110.5 18t99 26l37 -164q-81 -26 -184 -43t-178 -17 q-97 0 -172.5 17t-139 57t-104.5 104t-64 161t-23 225zM293 1299q0 63 21 80.5t85 17.5q32 0 50 -3t31.5 -13.5t18.5 -29.5t5 -52q0 -68 -21.5 -88.5t-83.5 -20.5q-63 0 -84.5 20.5t-21.5 88.5zM333 650h522q-4 85 -18 137.5t-44 83t-71.5 41.5t-109.5 11q-59 0 -101.5 -8.5 t-75 -27t-53 -50.5t-33 -77.5t-16.5 -109.5zM712 1299q0 63 21.5 80.5t85.5 17.5q62 0 83 -17.5t21 -80.5q0 -68 -21 -88.5t-83 -20.5q-63 0 -85 20.5t-22 88.5z" />
<glyph unicode="&#xec;" horiz-adv-x="498" d="M-86 1456h226l251 -270h-186zM153 0v1059h196v-1059h-196z" />
<glyph unicode="&#xed;" horiz-adv-x="498" d="M98 1186l253 270h223l-287 -270h-189zM153 0v1059h196v-1059h-196z" />
<glyph unicode="&#xee;" horiz-adv-x="498" d="M-108 1186q43 45 127 135t127 135h203l263 -270h-209q-28 30 -80.5 86.5t-77.5 83.5q-25 -29 -155 -170h-198zM153 0v1059h196v-1059h-196z" />
<glyph unicode="&#xef;" horiz-adv-x="498" d="M-64 1299q0 63 21 80.5t85 17.5q62 0 83 -17.5t21 -80.5q0 -68 -21 -88.5t-83 -20.5q-63 0 -84.5 20.5t-21.5 88.5zM153 0v1059h196v-1059h-196zM355 1299q0 63 21.5 80.5t85.5 17.5q62 0 83 -17.5t21 -80.5q0 -68 -21 -88.5t-83 -20.5q-63 0 -85 20.5t-22 88.5z" />
<glyph unicode="&#xf0;" d="M115 451q0 123 27 203t91 132t164.5 73.5t254.5 21.5q109 0 229 -16q-57 120 -173 253l-160 -105l-86 119l150 96q-84 91 -236 228h276q73 -67 129 -123l142 94l84 -119l-128 -84q71 -82 125.5 -164t98 -176t66.5 -198.5t23 -215.5q0 -102 -10.5 -176.5t-37 -132.5 t-66.5 -94.5t-102.5 -60t-140.5 -33t-185 -9.5q-146 0 -245.5 26t-165 84t-95 150t-29.5 227zM339 437q0 -43 3.5 -76.5t13 -64.5t25 -53t39 -40.5t56 -29.5t76 -17t98.5 -6q47 0 80 2t67 8t56 17t43 29t33.5 43.5t22 61t13.5 81.5t4 105q0 102 -22 182q-123 21 -281 21 q-69 0 -117 -4.5t-86.5 -16.5t-61 -30t-37 -48.5t-20 -69.5t-5.5 -94z" />
<glyph unicode="&#xf1;" horiz-adv-x="1186" d="M153 0v1001q90 38 220.5 62.5t242.5 24.5q94 0 161 -14.5t119 -48.5t83 -91.5t46 -140.5t15 -199v-594h-196v568q0 71 -5 121.5t-18 89.5t-32 62.5t-50 39t-69.5 21t-93.5 5.5q-121 0 -227 -30v-877h-196zM221 1276q49 85 100.5 127t121.5 42q26 0 51.5 -6.5t46 -17.5 t40 -24t37.5 -26.5t36 -24t38 -17.5t39 -7q27 0 47 12t37.5 40t35.5 77l108 -85q-72 -192 -234 -192q-32 0 -65 13t-60 31.5t-53 37t-55.5 31t-56.5 12.5q-35 0 -63.5 -27t-54.5 -90z" />
<glyph unicode="&#xf2;" horiz-adv-x="1226" d="M119 534q0 130 20 224.5t57.5 158t99 101.5t137.5 54t179 16q86 0 153 -11t123.5 -36.5t95.5 -67t67 -103t41 -145t13 -191.5q0 -130 -19.5 -225.5t-57 -160.5t-98 -104.5t-137.5 -56.5t-181 -17q-103 0 -180 17t-137.5 56.5t-98.5 104.5t-57.5 160.5t-19.5 225.5z M328 530q0 -96 9.5 -162.5t28.5 -112.5t53.5 -71t80 -35.5t112.5 -10.5t112.5 10.5t80.5 36t54 71t28.5 112t9.5 162.5q0 85 -6 145t-20.5 104.5t-35 71t-54.5 43t-73 22t-96 5.5t-96 -5.5t-73 -22t-54 -43t-34.5 -71t-20.5 -104.5t-6 -145zM339 1456h225l251 -270h-187z " />
<glyph unicode="&#xf3;" horiz-adv-x="1226" d="M119 534q0 130 20 224.5t57.5 158t99 101.5t137.5 54t179 16q86 0 153 -11t123.5 -36.5t95.5 -67t67 -103t41 -145t13 -191.5q0 -130 -19.5 -225.5t-57 -160.5t-98 -104.5t-137.5 -56.5t-181 -17q-103 0 -180 17t-137.5 56.5t-98.5 104.5t-57.5 160.5t-19.5 225.5z M328 530q0 -96 9.5 -162.5t28.5 -112.5t53.5 -71t80 -35.5t112.5 -10.5t112.5 10.5t80.5 36t54 71t28.5 112t9.5 162.5q0 85 -6 145t-20.5 104.5t-35 71t-54.5 43t-73 22t-96 5.5t-96 -5.5t-73 -22t-54 -43t-34.5 -71t-20.5 -104.5t-6 -145zM432 1186l253 270h224l-289 -270 h-188z" />
<glyph unicode="&#xf4;" horiz-adv-x="1226" d="M119 534q0 130 20 224.5t57.5 158t99 101.5t137.5 54t179 16q86 0 153 -11t123.5 -36.5t95.5 -67t67 -103t41 -145t13 -191.5q0 -130 -19.5 -225.5t-57 -160.5t-98 -104.5t-137.5 -56.5t-181 -17q-103 0 -180 17t-137.5 56.5t-98.5 104.5t-57.5 160.5t-19.5 225.5z M249 1186q43 45 127.5 135t127.5 135h202l263 -270h-209q-22 24 -50 53.5t-57 61t-51 55.5q-25 -29 -155 -170h-198zM328 530q0 -96 9.5 -162.5t28.5 -112.5t53.5 -71t80 -35.5t112.5 -10.5t112.5 10.5t80.5 36t54 71t28.5 112t9.5 162.5q0 85 -6 145t-20.5 104.5t-35 71 t-54.5 43t-73 22t-96 5.5t-96 -5.5t-73 -22t-54 -43t-34.5 -71t-20.5 -104.5t-6 -145z" />
<glyph unicode="&#xf5;" horiz-adv-x="1226" d="M119 534q0 130 20 224.5t57.5 158t99 101.5t137.5 54t179 16q86 0 153 -11t123.5 -36.5t95.5 -67t67 -103t41 -145t13 -191.5q0 -130 -19.5 -225.5t-57 -160.5t-98 -104.5t-137.5 -56.5t-181 -17q-103 0 -180 17t-137.5 56.5t-98.5 104.5t-57.5 160.5t-19.5 225.5z M241 1276q48 85 99.5 127t121.5 42q31 0 60.5 -9t51 -22.5t45 -29.5t42.5 -30t42.5 -23t46.5 -9q39 0 66 28.5t53 100.5l108 -85q-72 -192 -233 -192q-28 0 -56 9.5t-50 23t-46.5 30t-45 30.5t-45.5 23t-48 9q-11 0 -21.5 -2.5t-20.5 -8.5t-19.5 -15t-18.5 -22t-18.5 -30.5 t-17.5 -38.5zM328 530q0 -96 9.5 -162.5t28.5 -112.5t53.5 -71t80 -35.5t112.5 -10.5t112.5 10.5t80.5 36t54 71t28.5 112t9.5 162.5q0 85 -6 145t-20.5 104.5t-35 71t-54.5 43t-73 22t-96 5.5t-96 -5.5t-73 -22t-54 -43t-34.5 -71t-20.5 -104.5t-6 -145z" />
<glyph unicode="&#xf6;" horiz-adv-x="1226" d="M119 534q0 130 20 224.5t57.5 158t99 101.5t137.5 54t179 16q86 0 153 -11t123.5 -36.5t95.5 -67t67 -103t41 -145t13 -191.5q0 -130 -19.5 -225.5t-57 -160.5t-98 -104.5t-137.5 -56.5t-181 -17q-103 0 -180 17t-137.5 56.5t-98.5 104.5t-57.5 160.5t-19.5 225.5z M295 1299q0 63 21 80.5t85 17.5q32 0 50 -3t31.5 -13.5t18.5 -29.5t5 -52q0 -28 -3.5 -47t-10.5 -31.5t-20 -19t-29.5 -9t-41.5 -2.5q-63 0 -84.5 20.5t-21.5 88.5zM328 530q0 -96 9.5 -162.5t28.5 -112.5t53.5 -71t80 -35.5t112.5 -10.5t112.5 10.5t80.5 36t54 71t28.5 112 t9.5 162.5q0 85 -6 145t-20.5 104.5t-35 71t-54.5 43t-73 22t-96 5.5t-96 -5.5t-73 -22t-54 -43t-34.5 -71t-20.5 -104.5t-6 -145zM714 1299q0 33 5 52t18.5 29.5t32 13.5t51.5 3q62 0 83 -17.5t21 -80.5q0 -68 -21 -88.5t-83 -20.5q-63 0 -85 20.5t-22 88.5z" />
<glyph unicode="&#xf7;" horiz-adv-x="1256" d="M123 658v186h1009v-186h-1009zM495 325q0 41 6 65t23.5 37.5t40.5 17.5t63 4q43 0 67 -4t42 -17.5t24 -37.5t6 -65q0 -44 -6.5 -70.5t-23.5 -41.5t-41.5 -20t-67.5 -5q-40 0 -63.5 5t-40 20t-23 41.5t-6.5 70.5zM495 1184q0 42 6 66.5t23.5 38t40 17.5t63.5 4 q44 0 67.5 -4t41.5 -17.5t24 -38t6 -66.5q0 -44 -6.5 -70.5t-24 -41t-41.5 -19t-67 -4.5q-40 0 -63 4.5t-40.5 19t-23.5 41t-6 70.5z" />
<glyph unicode="&#xf8;" horiz-adv-x="1226" d="M62 0l130 153q-73 124 -73 381q0 108 13.5 191.5t41 145t67 103t95.5 67t122.5 36.5t151.5 11q209 0 315 -71l38 42h201l-132 -152q73 -124 73 -373q0 -130 -19.5 -225.5t-57.5 -160.5t-99 -104.5t-138 -56.5t-181 -17q-198 0 -313 72l-38 -42h-197zM328 556 q0 -154 13 -223l474 542q-60 46 -205 46q-55 0 -93.5 -5.5t-71.5 -20.5t-53.5 -40.5t-35.5 -66.5t-21 -97.5t-7 -134.5zM411 186q56 -48 199 -48q86 0 140 19t87.5 66t46.5 118.5t13 184.5q0 125 -12 199z" />
<glyph unicode="&#xf9;" horiz-adv-x="1186" d="M148 466v593h197v-568q0 -72 5 -122t17.5 -89t31.5 -62.5t49.5 -38.5t69 -20.5t92.5 -5.5q134 0 229 31v875h197v-1001q-60 -25 -141.5 -45.5t-165.5 -31.5t-157 -11q-117 0 -194.5 24t-130.5 81t-76 152t-23 239zM313 1456h226l250 -270h-185z" />
<glyph unicode="&#xfa;" horiz-adv-x="1186" d="M148 466v593h197v-568q0 -72 5 -122t17.5 -89t31.5 -62.5t49.5 -38.5t69 -20.5t92.5 -5.5q134 0 229 31v875h197v-1001q-60 -25 -141.5 -45.5t-165.5 -31.5t-157 -11q-117 0 -194.5 24t-130.5 81t-76 152t-23 239zM424 1186l253 270h224l-289 -270h-188z" />
<glyph unicode="&#xfb;" horiz-adv-x="1186" d="M148 466v593h197v-568q0 -72 5 -122t17.5 -89t31.5 -62.5t49.5 -38.5t69 -20.5t92.5 -5.5q134 0 229 31v875h197v-1001q-60 -25 -141.5 -45.5t-165.5 -31.5t-157 -11q-117 0 -194.5 24t-130.5 81t-76 152t-23 239zM253 1186q43 45 127.5 135t127.5 135h202l263 -270h-208 q-27 29 -80 85t-79 85q-25 -29 -155 -170h-198z" />
<glyph unicode="&#xfc;" horiz-adv-x="1186" d="M148 466v593h197v-568q0 -72 5 -122t17.5 -89t31.5 -62.5t49.5 -38.5t69 -20.5t92.5 -5.5q134 0 229 31v875h197v-1001q-60 -25 -141.5 -45.5t-165.5 -31.5t-157 -11q-117 0 -194.5 24t-130.5 81t-76 152t-23 239zM293 1299q0 63 21 80.5t85 17.5q32 0 50 -3t31.5 -13.5 t18.5 -29.5t5 -52q0 -68 -21.5 -88.5t-83.5 -20.5q-63 0 -84.5 20.5t-21.5 88.5zM712 1299q0 63 21.5 80.5t85.5 17.5q62 0 83 -17.5t21 -80.5q0 -68 -21 -88.5t-83 -20.5q-63 0 -85 20.5t-22 88.5z" />
<glyph unicode="&#xfd;" horiz-adv-x="1064" d="M26 1059h210q153 -362 294 -871q200 495 299 871h205q-137 -466 -396 -1079q-87 -208 -178 -381h-224q78 145 171 351q-83 299 -183.5 595.5t-197.5 513.5zM391 1186l253 270h223l-289 -270h-187z" />
<glyph unicode="&#xfe;" horiz-adv-x="1210" d="M153 -401v1896h196v-436q131 29 249 29q105 0 181.5 -16t137.5 -54.5t98 -102.5t56 -158.5t19 -224.5q0 -128 -19.5 -224t-56.5 -160.5t-96 -104t-131 -56.5t-167 -17q-163 0 -271 76v-447h-196zM349 271q0 -59 71.5 -93t177.5 -34q83 0 135.5 17t87.5 61t48.5 117 t13.5 189q0 83 -5.5 142t-20.5 102.5t-35.5 70t-54.5 42.5t-73 22t-96 6q-150 0 -249 -38v-604z" />
<glyph unicode="&#xff;" horiz-adv-x="1064" d="M26 1059h210q153 -362 294 -871q200 495 299 871h205q-137 -466 -396 -1079q-87 -208 -178 -381h-224q78 145 171 351q-83 299 -183.5 595.5t-197.5 513.5zM221 1299q0 63 22 80.5t85 17.5t83.5 -17.5t20.5 -80.5q0 -68 -21 -88.5t-83 -20.5q-32 0 -51 4t-32.5 16 t-18.5 33t-5 56zM642 1299q0 63 21 80.5t85 17.5q62 0 83.5 -18t21.5 -80q0 -68 -21.5 -88.5t-83.5 -20.5q-33 0 -51.5 4t-32 16t-18 33t-4.5 56z" />
<glyph unicode="&#x152;" horiz-adv-x="2305" d="M121 737q0 149 18 262.5t56 197t92 140.5t132 91t169 48.5t210 14.5q181 0 301 -35h1147v-182h-897q107 -134 122 -413h451v-178h-449q-2 -121 -17 -215t-44 -165t-73 -121h907v-182h-1172q-115 -30 -276 -30q-118 0 -209.5 15.5t-169.5 50.5t-132 93t-92 143t-56 200.5 t-18 264.5zM351 733q0 -120 8.5 -206t31 -151.5t54.5 -105.5t84 -65t115.5 -34.5t153.5 -9.5t154 9.5t116.5 34.5t85.5 65t55 105.5t31.5 151.5t9.5 206q0 83 -4.5 148.5t-13 120.5t-23.5 96.5t-33.5 74t-46.5 54.5t-59.5 37.5t-75 23.5t-90 12t-106.5 4q-54 0 -96.5 -3 t-82.5 -10t-70 -18t-57.5 -29.5t-46.5 -42t-36 -56.5t-27 -73t-17.5 -92t-10.5 -112t-3 -135z" />
<glyph unicode="&#x153;" horiz-adv-x="1919" d="M119 534q0 130 20 224.5t57.5 158t99 101.5t137.5 54t179 16q147 0 241 -36.5t146 -122.5q55 82 147 120.5t231 38.5q82 0 144 -10.5t114.5 -37t87.5 -71t59 -111t34 -158t8 -211.5h-721q0 -86 13 -146t36.5 -99t63 -61t87.5 -30.5t116 -8.5q22 0 51.5 2t62 6.5t65 10.5 t64.5 14t58 17l34 -164q-79 -26 -182 -43t-177 -17q-148 0 -243 38.5t-149 131.5q-52 -92 -146.5 -131t-244.5 -39q-103 0 -180 17t-137.5 56.5t-98.5 104.5t-57.5 160.5t-19.5 225.5zM328 530q0 -96 9.5 -162.5t28.5 -112.5t53.5 -71t80 -35.5t112.5 -10.5t112.5 10.5 t80.5 36t54 71t28.5 112t9.5 162.5q0 85 -6 145t-20.5 104.5t-35 71t-54.5 43t-73 22t-96 5.5t-96 -5.5t-73 -22t-54 -43t-34.5 -71t-20.5 -104.5t-6 -145zM1105 650h522q-4 85 -18 137.5t-44 83t-72 41.5t-110 11q-71 0 -117.5 -11.5t-82 -41.5t-54 -83.5t-24.5 -136.5z " />
<glyph unicode="&#x178;" horiz-adv-x="1298" d="M-46 1456h276q225 -282 436 -597q242 317 422 597h253q-293 -432 -578 -792v-664h-213v664q-312 449 -596 792zM349 1688q0 62 21 80t85 18q62 0 83.5 -18t21.5 -80q0 -68 -21.5 -88.5t-83.5 -20.5q-63 0 -84.5 20.5t-21.5 88.5zM769 1688q0 62 21 80t85 18q63 0 84 -18 t21 -80q0 -68 -21.5 -88.5t-83.5 -20.5q-33 0 -51.5 3.5t-31.5 15.5t-18 33t-5 57z" />
<glyph unicode="&#x2c6;" horiz-adv-x="1399" d="M361 1186q43 45 127.5 135t127.5 135h203l263 -270h-209q-22 24 -50 54t-57.5 61t-51.5 55q-38 -45 -154 -170h-199z" />
<glyph unicode="&#x2dc;" horiz-adv-x="1507" d="M299 1276q48 85 99.5 127t121.5 42q27 0 52.5 -6.5t45.5 -17.5t40 -24t38 -26.5t35.5 -24t37.5 -17.5t40 -7q39 0 65.5 28.5t52.5 100.5l109 -85q-71 -192 -234 -192q-33 0 -65.5 13t-59.5 31.5t-53 37t-55.5 31t-56.5 12.5q-34 0 -62.5 -27t-54.5 -90z" />
<glyph unicode="&#x2000;" horiz-adv-x="921" />
<glyph unicode="&#x2001;" horiz-adv-x="1842" />
<glyph unicode="&#x2002;" horiz-adv-x="921" />
<glyph unicode="&#x2003;" horiz-adv-x="1842" />
<glyph unicode="&#x2004;" horiz-adv-x="614" />
<glyph unicode="&#x2005;" horiz-adv-x="460" />
<glyph unicode="&#x2006;" horiz-adv-x="307" />
<glyph unicode="&#x2007;" horiz-adv-x="307" />
<glyph unicode="&#x2008;" horiz-adv-x="230" />
<glyph unicode="&#x2009;" horiz-adv-x="368" />
<glyph unicode="&#x200a;" horiz-adv-x="102" />
<glyph unicode="&#x2010;" horiz-adv-x="604" d="M64 489v186h477v-186h-477z" />
<glyph unicode="&#x2011;" horiz-adv-x="604" d="M64 489v186h477v-186h-477z" />
<glyph unicode="&#x2012;" horiz-adv-x="604" d="M64 489v186h477v-186h-477z" />
<glyph unicode="&#x2013;" horiz-adv-x="1170" d="M106 489v186h959v-186h-959z" />
<glyph unicode="&#x2014;" horiz-adv-x="1776" d="M106 489v186h1565v-186h-1565z" />
<glyph unicode="&#x2018;" horiz-adv-x="492" d="M50 1055l227 541h168l-163 -541h-232z" />
<glyph unicode="&#x2019;" horiz-adv-x="490" d="M48 1049l163 543h232l-228 -543h-167z" />
<glyph unicode="&#x201a;" horiz-adv-x="480" d="M42 -333l163 542h232l-228 -542h-167z" />
<glyph unicode="&#x201c;" horiz-adv-x="861" d="M50 1055l227 541h168l-163 -541h-232zM422 1055l228 541h167l-163 -541h-232z" />
<glyph unicode="&#x201d;" horiz-adv-x="861" d="M48 1051l163 541h232l-228 -541h-167zM420 1051l162 541h233l-229 -541h-166z" />
<glyph unicode="&#x201e;" horiz-adv-x="861" d="M48 -339l163 544h232l-228 -544h-167zM420 -339l162 544h233l-229 -544h-166z" />
<glyph unicode="&#x2022;" horiz-adv-x="1226" d="M119 681q0 130 20 224t57.5 157.5t99 101.5t137.5 54t179 16q104 0 180 -16t137.5 -54t99 -101.5t57 -157.5t19.5 -224t-19.5 -225.5t-57 -160.5t-98 -104.5t-137.5 -56.5t-181 -17q-103 0 -180 17t-137.5 56.5t-98.5 104.5t-57.5 160.5t-19.5 225.5z" />
<glyph unicode="&#x2026;" horiz-adv-x="2456" d="M357 132q0 40 6.5 64.5t24 38t41 18t64.5 4.5t65.5 -4.5t42 -18t23.5 -37.5t6 -65q0 -45 -6 -71t-23.5 -41t-41.5 -19.5t-66 -4.5q-41 0 -64.5 4.5t-41 19t-24 41t-6.5 71.5zM1090 132q0 40 7 64.5t24.5 38t41 18t63.5 4.5q42 0 66 -4.5t41.5 -18t24 -37.5t6.5 -65 q0 -45 -6.5 -71t-24 -41t-41.5 -19.5t-66 -4.5q-40 0 -63.5 4.5t-41 19t-24.5 41t-7 71.5zM1826 132q0 32 4.5 54t13.5 36.5t26 22t37.5 10t51.5 2.5q43 0 67 -4.5t41.5 -18t23.5 -37.5t6 -65q0 -45 -6 -71t-23.5 -41t-41.5 -19.5t-67 -4.5q-39 0 -62 4.5t-40.5 19t-24 41 t-6.5 71.5z" />
<glyph unicode="&#x202f;" horiz-adv-x="368" />
<glyph unicode="&#x2039;" horiz-adv-x="801" d="M62 638l562 572l118 -122l-412 -444l412 -456l-114 -124z" />
<glyph unicode="&#x203a;" horiz-adv-x="801" d="M64 188l412 445l-412 455l113 124l565 -574l-562 -571z" />
<glyph unicode="&#x205f;" horiz-adv-x="460" />
<glyph unicode="&#x20ac;" horiz-adv-x="1246" d="M121 742q0 148 18 262t56 197t91.5 139t131.5 89.5t168.5 47.5t209.5 14q65 0 139.5 -7t146 -19t126.5 -28l-52 -190q-61 23 -156 36.5t-179 13.5q-85 0 -144 -6t-113 -24t-89 -50.5t-61 -84t-40 -125.5h555v-152h-578v-229h578v-150h-555q14 -76 39.5 -130.5t60.5 -89 t88 -54.5t113.5 -27.5t145.5 -7.5q83 0 178.5 13.5t156.5 34.5l52 -189q-42 -13 -94 -23.5t-105.5 -17.5t-108.5 -11t-104 -4q-142 0 -247 23.5t-188 77.5t-134.5 143t-78.5 219.5t-27 308.5z" />
<glyph unicode="&#x2122;" horiz-adv-x="1620" d="M23 1326v130h610v-130h-228v-607h-152v607h-230zM714 719v737h209l193 -559l186 559h200v-737h-142v578l-188 -564h-136l-181 564v-578h-141z" />
<glyph unicode="&#x25fc;" horiz-adv-x="1054" d="M0 0v1055h1055v-1055h-1055z" />
</font>
</defs>
</svg>
